<svg id="visual" viewBox="0 0 960 540" width="960" height="540" xmlns="http://www.w3.org/2000/svg" xmlns:xlink="http://www.w3.org/1999/xlink" version="1.1"><path d="M0 363L22.8 366.5C45.7 370 91.3 377 137 389.3C182.7 401.7 228.3 419.3 274 427.2C319.7 435 365.3 433 411.2 428.8C457 424.7 503 418.3 548.8 417.8C594.7 417.3 640.3 422.7 686 420.5C731.7 418.3 777.3 408.7 823 407.3C868.7 406 914.3 413 937.2 416.5L960 420L960 541L937.2 541C914.3 541 868.7 541 823 541C777.3 541 731.7 541 686 541C640.3 541 594.7 541 548.8 541C503 541 457 541 411.2 541C365.3 541 319.7 541 274 541C228.3 541 182.7 541 137 541C91.3 541 45.7 541 22.8 541L0 541Z" fill="#f97316"></path><path d="M0 453L22.8 447.2C45.7 441.3 91.3 429.7 137 430.3C182.7 431 228.3 444 274 448.2C319.7 452.3 365.3 447.7 411.2 443.2C457 438.7 503 434.3 548.8 431.7C594.7 429 640.3 428 686 432C731.7 436 777.3 445 823 442.2C868.7 439.3 914.3 424.7 937.2 417.3L960 410L960 541L937.2 541C914.3 541 868.7 541 823 541C777.3 541 731.7 541 686 541C640.3 541 594.7 541 548.8 541C503 541 457 541 411.2 541C365.3 541 319.7 541 274 541C228.3 541 182.7 541 137 541C91.3 541 45.7 541 22.8 541L0 541Z" fill="#fb903b"></path><path d="M0 449L22.8 451.3C45.7 453.7 91.3 458.3 137 455.3C182.7 452.3 228.3 441.7 274 441.7C319.7 441.7 365.3 452.3 411.2 453.5C457 454.7 503 446.3 548.8 440.8C594.7 435.3 640.3 432.7 686 431.8C731.7 431 777.3 432 823 436.2C868.7 440.3 914.3 447.7 937.2 451.3L960 455L960 541L937.2 541C914.3 541 868.7 541 823 541C777.3 541 731.7 541 686 541C640.3 541 594.7 541 548.8 541C503 541 457 541 411.2 541C365.3 541 319.7 541 274 541C228.3 541 182.7 541 137 541C91.3 541 45.7 541 22.8 541L0 541Z" fill="#fca95e"></path><path d="M0 492L22.8 487.5C45.7 483 91.3 474 137 473C182.7 472 228.3 479 274 480.8C319.7 482.7 365.3 479.3 411.2 476C457 472.7 503 469.3 548.8 470.2C594.7 471 640.3 476 686 480.5C731.7 485 777.3 489 823 491.7C868.7 494.3 914.3 495.7 937.2 496.3L960 497L960 541L937.2 541C914.3 541 868.7 541 823 541C777.3 541 731.7 541 686 541C640.3 541 594.7 541 548.8 541C503 541 457 541 411.2 541C365.3 541 319.7 541 274 541C228.3 541 182.7 541 137 541C91.3 541 45.7 541 22.8 541L0 541Z" fill="#fdc183"></path><path d="M0 495L22.8 493.5C45.7 492 91.3 489 137 491.5C182.7 494 228.3 502 274 503.7C319.7 505.3 365.3 500.7 411.2 498.7C457 496.7 503 497.3 548.8 500.2C594.7 503 640.3 508 686 509.2C731.7 510.3 777.3 507.7 823 503.8C868.7 500 914.3 495 937.2 492.5L960 490L960 541L937.2 541C914.3 541 868.7 541 823 541C777.3 541 731.7 541 686 541C640.3 541 594.7 541 548.8 541C503 541 457 541 411.2 541C365.3 541 319.7 541 274 541C228.3 541 182.7 541 137 541C91.3 541 45.7 541 22.8 541L0 541Z" fill="#fed7aa"></path></svg>