<svg id="visual" viewBox="0 0 960 540" width="960" height="540" xmlns="http://www.w3.org/2000/svg" xmlns:xlink="http://www.w3.org/1999/xlink" version="1.1"><path d="M0 434L22.8 422.5C45.7 411 91.3 388 137 386C182.7 384 228.3 403 274 408C319.7 413 365.3 404 411.2 394.7C457 385.3 503 375.7 548.8 382.3C594.7 389 640.3 412 686 423.2C731.7 434.3 777.3 433.7 823 421.8C868.7 410 914.3 387 937.2 375.5L960 364L960 541L937.2 541C914.3 541 868.7 541 823 541C777.3 541 731.7 541 686 541C640.3 541 594.7 541 548.8 541C503 541 457 541 411.2 541C365.3 541 319.7 541 274 541C228.3 541 182.7 541 137 541C91.3 541 45.7 541 22.8 541L0 541Z" fill="#f97316"></path><path d="M0 424L22.8 429C45.7 434 91.3 444 137 444.3C182.7 444.7 228.3 435.3 274 434.2C319.7 433 365.3 440 411.2 439.3C457 438.7 503 430.3 548.8 422C594.7 413.7 640.3 405.3 686 401.7C731.7 398 777.3 399 823 398.7C868.7 398.3 914.3 396.7 937.2 395.8L960 395L960 541L937.2 541C914.3 541 868.7 541 823 541C777.3 541 731.7 541 686 541C640.3 541 594.7 541 548.8 541C503 541 457 541 411.2 541C365.3 541 319.7 541 274 541C228.3 541 182.7 541 137 541C91.3 541 45.7 541 22.8 541L0 541Z" fill="#fb903b"></path><path d="M0 432L22.8 440.2C45.7 448.3 91.3 464.7 137 468C182.7 471.3 228.3 461.7 274 456.5C319.7 451.3 365.3 450.7 411.2 454.5C457 458.3 503 466.7 548.8 467C594.7 467.3 640.3 459.7 686 458.3C731.7 457 777.3 462 823 465.5C868.7 469 914.3 471 937.2 472L960 473L960 541L937.2 541C914.3 541 868.7 541 823 541C777.3 541 731.7 541 686 541C640.3 541 594.7 541 548.8 541C503 541 457 541 411.2 541C365.3 541 319.7 541 274 541C228.3 541 182.7 541 137 541C91.3 541 45.7 541 22.8 541L0 541Z" fill="#fca95e"></path><path d="M0 491L22.8 487.2C45.7 483.3 91.3 475.7 137 471.5C182.7 467.3 228.3 466.7 274 468.2C319.7 469.7 365.3 473.3 411.2 472.7C457 472 503 467 548.8 463.7C594.7 460.3 640.3 458.7 686 461.5C731.7 464.3 777.3 471.7 823 473.7C868.7 475.7 914.3 472.3 937.2 470.7L960 469L960 541L937.2 541C914.3 541 868.7 541 823 541C777.3 541 731.7 541 686 541C640.3 541 594.7 541 548.8 541C503 541 457 541 411.2 541C365.3 541 319.7 541 274 541C228.3 541 182.7 541 137 541C91.3 541 45.7 541 22.8 541L0 541Z" fill="#fdc183"></path><path d="M0 488L22.8 488.3C45.7 488.7 91.3 489.3 137 492C182.7 494.7 228.3 499.3 274 503.8C319.7 508.3 365.3 512.7 411.2 514.7C457 516.7 503 516.3 548.8 517C594.7 517.7 640.3 519.3 686 518.8C731.7 518.3 777.3 515.7 823 514.8C868.7 514 914.3 515 937.2 515.5L960 516L960 541L937.2 541C914.3 541 868.7 541 823 541C777.3 541 731.7 541 686 541C640.3 541 594.7 541 548.8 541C503 541 457 541 411.2 541C365.3 541 319.7 541 274 541C228.3 541 182.7 541 137 541C91.3 541 45.7 541 22.8 541L0 541Z" fill="#fed7aa"></path></svg>