<?xml version="1.0" standalone="no"?>
<!DOCTYPE svg PUBLIC "-//W3C//DTD SVG 20010904//EN"
 "http://www.w3.org/TR/2001/REC-SVG-20010904/DTD/svg10.dtd">
<svg version="1.0" xmlns="http://www.w3.org/2000/svg"
 width="1028.000000pt" height="1028.000000pt" viewBox="0 0 1028.000000 1028.000000"
 preserveAspectRatio="xMidYMid meet">
<metadata>
Created by potrace 1.14, written by Peter Selinger 2001-2017
</metadata>
<g transform="translate(0.000000,1028.000000) scale(0.100000,-0.100000)"
fill="#000000" stroke="none">
<path d="M4878 10276 c-1 -2 -46 -6 -98 -10 -194 -13 -335 -30 -436 -50 -12
-2 -45 -7 -75 -11 -30 -4 -57 -9 -60 -11 -4 -2 -24 -6 -45 -9 -22 -4 -47 -8
-56 -11 -10 -3 -30 -8 -45 -10 -24 -4 -70 -15 -123 -28 -8 -2 -28 -7 -45 -11
-161 -38 -488 -145 -635 -207 -14 -6 -29 -12 -35 -14 -40 -10 -503 -230 -515
-245 -3 -4 -25 -16 -49 -29 -102 -51 -433 -263 -487 -312 -11 -10 -24 -18 -28
-18 -4 0 -17 -9 -29 -21 -12 -12 -38 -31 -57 -44 -19 -12 -48 -34 -63 -49 -15
-14 -32 -26 -37 -26 -4 0 -10 -3 -12 -7 -2 -5 -30 -30 -63 -58 -156 -130 -325
-290 -496 -473 -47 -51 -84 -92 -82 -92 3 0 -33 -44 -58 -69 -30 -31 -137
-168 -212 -271 -42 -58 -81 -110 -86 -116 -5 -6 -50 -75 -100 -155 -50 -79
-96 -151 -103 -159 -7 -8 -11 -15 -9 -15 4 0 -5 -19 -37 -70 -43 -72 -196
-380 -241 -490 -23 -55 -48 -113 -55 -130 -11 -25 -33 -85 -94 -255 -3 -8 -6
-17 -7 -20 0 -3 -14 -45 -30 -95 -16 -49 -30 -94 -31 -100 -1 -5 -16 -63 -33
-127 -44 -162 -79 -328 -107 -503 -2 -16 -6 -41 -9 -55 -2 -14 -7 -45 -9 -70
-3 -25 -8 -61 -11 -80 -3 -19 -7 -60 -10 -90 -2 -30 -8 -95 -12 -145 -15 -188
-8 -714 11 -880 2 -16 7 -57 11 -90 3 -33 8 -73 11 -90 2 -16 6 -47 9 -67 8
-62 14 -101 20 -128 6 -30 25 -136 30 -167 2 -11 6 -30 10 -42 3 -11 8 -32 11
-46 10 -57 45 -195 69 -275 15 -47 28 -93 30 -103 16 -74 159 -456 226 -603
74 -164 225 -448 312 -589 24 -38 189 -288 198 -299 51 -63 60 -76 52 -76 -4
0 -3 -4 3 -8 6 -4 49 -54 94 -112 46 -58 86 -107 89 -110 4 -3 19 -21 35 -40
95 -116 349 -378 461 -475 32 -27 70 -62 86 -76 15 -14 44 -39 65 -55 20 -16
42 -34 48 -39 6 -6 39 -32 73 -58 34 -26 68 -53 75 -60 8 -6 21 -16 30 -22 21
-13 198 -140 223 -160 10 -8 25 -15 31 -15 7 0 14 -4 16 -8 3 -10 297 -189
325 -199 10 -3 25 -12 35 -20 9 -8 23 -15 31 -17 8 -1 25 -9 38 -17 25 -16
139 -71 244 -119 33 -15 81 -37 107 -49 26 -11 51 -21 55 -21 4 0 19 -6 34
-13 14 -8 45 -21 70 -29 24 -9 96 -35 159 -57 109 -40 367 -115 475 -140 28
-6 61 -14 75 -17 56 -13 258 -52 295 -58 22 -3 49 -7 60 -9 23 -5 125 -18 170
-23 52 -4 168 -16 240 -24 77 -8 695 -5 735 3 14 3 61 8 105 11 44 4 89 8 100
10 11 2 47 7 80 10 33 4 98 14 145 22 47 8 101 17 120 20 19 3 43 7 52 10 10
3 29 7 43 10 62 10 209 45 295 69 98 27 190 55 210 63 14 5 28 10 32 11 4 1
13 3 20 6 7 2 36 11 63 20 111 36 280 103 434 172 73 32 298 145 356 178 33
18 71 40 85 48 99 55 188 110 299 184 35 24 68 43 73 43 5 0 6 5 3 10 -3 6 -2
10 4 10 20 0 315 221 361 270 3 3 18 16 34 28 88 67 361 333 476 462 36 40 75
85 88 98 12 14 33 38 45 54 12 16 31 39 42 52 11 12 31 38 45 56 14 19 33 42
43 52 9 10 17 20 17 23 0 2 26 39 58 82 32 43 81 112 108 153 27 41 51 77 55
80 5 5 59 92 89 145 40 70 64 110 70 115 3 3 19 32 35 65 17 33 32 62 35 65 6
6 124 243 124 250 1 3 16 39 34 80 93 207 156 378 231 625 32 107 76 278 86
334 3 19 7 37 9 40 2 3 7 22 10 41 3 19 7 44 9 55 3 11 7 36 11 55 3 19 8 45
10 56 2 12 7 39 10 60 4 22 8 53 11 69 8 51 14 98 20 160 3 33 8 71 10 85 27
169 26 859 0 1030 -2 14 -7 50 -10 80 -6 64 -14 123 -21 165 -3 17 -7 41 -9
55 -9 65 -43 247 -55 290 -5 19 -11 46 -14 60 -8 47 -56 230 -76 295 -150 483
-281 774 -561 1255 -8 13 -18 29 -24 35 -5 6 -19 28 -30 48 -11 20 -23 37 -27
37 -5 0 -8 5 -8 10 0 10 -37 68 -51 80 -3 3 -21 28 -39 55 -19 28 -37 52 -42
53 -4 2 -8 10 -8 17 0 7 -3 15 -7 17 -5 2 -28 30 -52 63 -25 33 -65 85 -90
115 -25 30 -54 63 -63 75 -122 147 -291 322 -459 477 -118 109 -138 126 -185
163 -21 17 -74 59 -119 95 -45 36 -95 74 -110 85 -16 11 -34 26 -41 33 -7 6
-16 12 -19 12 -4 0 -24 14 -45 30 -21 17 -42 30 -48 30 -5 0 -13 7 -16 16 -3
8 -10 13 -15 9 -5 -3 -12 -1 -16 5 -4 6 -34 28 -68 50 -34 22 -67 43 -73 47
-11 9 -13 10 -193 113 -187 106 -414 213 -636 300 -88 34 -168 66 -177 71 -10
5 -26 9 -36 9 -10 0 -22 3 -26 7 -3 4 -12 8 -19 10 -7 1 -50 14 -97 28 -47 15
-92 28 -100 30 -8 2 -42 12 -75 21 -33 9 -67 17 -75 19 -8 2 -42 10 -75 18
-33 9 -71 18 -85 21 -14 3 -61 12 -104 21 -44 8 -93 18 -110 20 -17 3 -42 7
-56 10 -38 7 -79 13 -135 20 -83 11 -97 13 -175 20 -41 4 -95 9 -120 11 -51 6
-646 14 -652 10z m647 -210 c86 -7 188 -18 206 -21 9 -2 40 -6 69 -10 29 -4
62 -9 74 -11 12 -2 46 -7 76 -10 30 -3 58 -8 61 -10 4 -2 24 -6 45 -10 200
-31 656 -161 835 -238 20 -8 39 -12 43 -9 3 4 6 1 6 -5 0 -7 5 -12 11 -12 15
0 177 -69 289 -123 47 -22 88 -40 93 -39 4 1 7 -1 7 -6 0 -4 14 -13 31 -21 41
-18 239 -128 256 -143 7 -6 13 -7 13 -2 0 5 4 4 8 -1 8 -11 72 -53 115 -74 15
-8 27 -18 27 -23 0 -5 4 -7 9 -4 5 3 11 -1 15 -9 3 -8 12 -15 21 -15 8 0 15
-5 15 -12 0 -6 3 -9 6 -5 6 5 15 0 49 -30 7 -7 18 -13 23 -13 6 0 12 -3 14 -7
2 -5 44 -37 93 -73 50 -35 95 -69 101 -75 7 -5 20 -17 31 -25 68 -54 185 -151
223 -185 47 -43 275 -262 294 -283 6 -7 29 -32 51 -55 22 -24 60 -67 85 -97
25 -30 55 -65 68 -79 29 -32 38 -43 88 -106 21 -27 44 -53 49 -57 7 -5 7 -8 0
-8 -6 0 -5 -4 1 -8 16 -10 169 -216 184 -247 3 -5 23 -37 44 -70 68 -103 82
-127 141 -230 82 -142 193 -366 264 -533 34 -79 61 -145 61 -147 0 -2 5 -16
12 -32 6 -15 12 -32 14 -38 1 -5 11 -35 22 -65 44 -119 124 -386 138 -460 3
-14 9 -38 14 -55 5 -16 11 -41 14 -55 8 -49 19 -105 23 -125 3 -11 6 -33 9
-50 2 -16 6 -37 9 -45 5 -16 30 -189 40 -275 3 -27 7 -66 10 -85 26 -224 26
-866 0 -995 -2 -11 -7 -50 -10 -87 -3 -37 -8 -80 -11 -95 -2 -15 -6 -41 -9
-58 -2 -16 -7 -48 -10 -70 -4 -22 -15 -85 -26 -140 -10 -55 -21 -110 -24 -123
-2 -13 -7 -32 -10 -42 -3 -10 -8 -27 -10 -37 -2 -10 -8 -38 -14 -63 -7 -25
-14 -55 -16 -66 -3 -12 -14 -52 -26 -89 -11 -38 -22 -75 -24 -84 -8 -38 -115
-344 -135 -386 -5 -11 -23 -54 -41 -95 -17 -41 -38 -91 -47 -110 -9 -19 -16
-37 -17 -40 -2 -11 -125 -250 -164 -320 -23 -41 -45 -83 -48 -92 -3 -10 -9
-18 -14 -18 -5 0 -9 -5 -9 -11 0 -6 -10 -25 -22 -42 -13 -18 -23 -34 -23 -37
-1 -9 -60 -95 -67 -98 -5 -2 -8 -8 -8 -14 0 -20 -251 -367 -272 -376 -5 -2 -8
-10 -8 -17 0 -7 -4 -15 -9 -17 -4 -1 -32 -32 -62 -68 -29 -36 -71 -85 -93
-110 -55 -61 -364 -369 -401 -400 -28 -23 -145 -123 -171 -145 -25 -22 -53
-43 -149 -114 -55 -41 -117 -87 -137 -103 -20 -15 -41 -28 -47 -28 -5 0 -11
-4 -13 -8 -3 -7 -100 -71 -191 -127 -55 -33 -228 -130 -297 -166 -36 -19 -66
-37 -68 -41 -2 -5 -10 -8 -17 -8 -7 0 -37 -12 -67 -27 -29 -15 -55 -28 -58
-28 -3 -1 -32 -14 -65 -29 -165 -78 -620 -237 -747 -261 -11 -2 -27 -6 -36 -9
-9 -3 -28 -8 -42 -10 -26 -6 -87 -20 -130 -30 -24 -6 -152 -29 -215 -40 -72
-11 -112 -17 -145 -21 -19 -3 -55 -7 -80 -10 -25 -3 -61 -7 -80 -10 -213 -26
-779 -27 -985 0 -16 2 -55 6 -85 9 -30 3 -71 8 -90 11 -19 3 -66 10 -105 16
-38 6 -86 15 -105 19 -19 5 -55 12 -80 15 -50 8 -75 13 -75 15 0 1 -11 4 -25
6 -73 13 -313 79 -438 119 -305 99 -622 236 -897 390 -27 16 -59 33 -70 39
-11 6 -22 13 -25 16 -11 11 -112 70 -120 70 -5 0 -10 3 -12 8 -1 4 -50 38
-108 77 -118 78 -259 181 -276 201 -6 8 -14 14 -18 14 -7 0 -90 66 -132 105
-11 11 -45 40 -75 65 -58 49 -351 338 -413 408 -34 39 -145 170 -181 214 -49
60 -144 187 -153 205 -7 12 -18 27 -25 35 -22 22 -137 196 -137 208 0 5 -3 10
-7 10 -5 0 -21 25 -38 55 -16 30 -33 55 -37 55 -4 0 -7 3 -6 8 1 4 -17 41 -42
82 -41 70 -210 403 -210 414 0 3 -13 34 -29 68 -16 35 -52 126 -80 203 -28 77
-55 149 -60 160 -8 20 -11 29 -50 160 -24 81 -78 280 -85 316 -3 13 -16 80
-30 149 -14 69 -28 141 -30 160 -3 19 -7 49 -10 65 -7 47 -15 106 -21 155 -3
25 -7 62 -10 83 -26 223 -27 842 -1 997 3 14 7 57 11 95 3 39 8 77 10 85 2 8
6 35 9 60 4 25 8 56 10 70 3 14 7 41 10 60 3 19 10 58 16 85 6 28 13 64 16 80
40 217 179 666 269 870 8 17 25 57 38 90 96 231 267 541 444 803 81 119 93
136 121 167 7 8 11 15 7 15 -4 0 0 6 7 13 7 8 40 48 73 90 33 43 63 77 67 77
5 0 8 5 8 10 0 6 10 21 23 34 12 13 41 45 63 72 23 27 57 65 75 84 19 19 46
50 62 69 15 18 27 32 27 29 0 -3 48 43 107 102 99 98 233 219 310 280 18 14
46 36 63 50 18 14 49 39 70 55 20 17 47 37 60 45 12 8 42 30 66 48 23 17 46
32 49 32 4 0 12 6 20 13 30 28 55 46 55 39 0 -4 4 -2 8 4 6 9 248 164 256 164
2 0 46 24 97 53 234 132 519 257 804 352 159 53 417 125 540 149 17 4 41 9 55
12 40 8 181 33 225 39 23 3 50 7 60 9 11 2 52 7 90 11 39 4 84 9 100 11 17 2
75 7 130 10 55 4 101 8 103 9 5 4 570 -4 627 -9z"/>
<path d="M4623 9782 c-24 -2 -43 -8 -43 -13 0 -6 -4 -8 -10 -4 -26 16 -200
-108 -200 -143 0 -7 -5 -12 -11 -12 -5 0 -7 -4 -4 -10 3 -5 2 -10 -4 -10 -8 0
-19 -21 -27 -55 -2 -5 -7 -23 -11 -40 -10 -33 -9 -132 2 -180 11 -53 42 -109
81 -151 41 -43 114 -101 114 -90 0 4 11 -1 25 -10 14 -9 32 -14 40 -10 8 3 15
1 15 -4 0 -5 9 -7 20 -5 11 2 20 1 20 -3 0 -4 11 -7 24 -7 13 0 21 4 18 10 -3
6 1 4 10 -2 8 -7 18 -10 21 -7 6 6 25 10 70 13 10 0 16 5 12 10 -3 6 4 8 15 6
11 -2 20 1 20 6 0 6 5 7 10 4 6 -3 10 -1 10 6 0 7 3 10 6 6 9 -8 33 16 26 27
-3 5 0 6 6 2 6 -3 33 16 61 42 28 27 51 47 51 44 0 -2 20 16 44 42 25 25 50
46 56 46 7 0 9 7 6 16 -3 8 -2 12 4 9 13 -8 54 31 46 43 -3 5 2 9 12 8 9 0 16
5 14 12 -1 8 2 11 7 8 6 -4 33 16 62 44 28 27 55 50 60 50 4 0 10 9 14 20 3
11 9 19 13 17 13 -3 61 46 55 56 -3 6 -1 7 4 4 13 -8 55 27 45 37 -4 4 -2 7 3
5 6 -1 24 4 40 11 17 7 33 13 38 12 4 -1 7 4 7 11 0 8 4 7 10 -3 5 -8 10 -10
10 -5 0 6 16 10 35 10 19 0 35 -4 35 -8 0 -4 6 -7 13 -5 22 4 127 -60 129 -79
0 -4 4 -7 10 -5 5 1 7 -2 4 -7 -4 -5 -2 -12 4 -16 6 -4 8 -11 5 -16 -4 -5 -1
-9 4 -9 6 0 11 -11 11 -24 0 -14 4 -27 8 -30 6 -4 8 -61 2 -61 -8 0 -4 -45 4
-45 6 0 3 -5 -6 -10 -10 -6 -15 -19 -13 -30 2 -11 0 -18 -6 -15 -5 4 -9 2 -9
-4 0 -5 -15 -24 -32 -42 -18 -18 -32 -36 -31 -39 1 -4 -5 -7 -13 -8 -8 -1 -21
-3 -29 -4 -8 -1 -16 -7 -19 -13 -6 -16 -134 -14 -163 3 -13 7 -23 9 -23 5 0
-4 -7 3 -16 15 -8 12 -22 22 -30 22 -8 0 -13 4 -11 9 1 5 -1 8 -5 8 -4 -1 -17
12 -30 28 -30 39 -51 42 -77 9 -12 -15 -21 -23 -21 -18 0 4 -9 -2 -20 -14 -11
-12 -20 -23 -20 -26 0 -7 50 -56 56 -56 3 0 20 -15 37 -33 39 -39 101 -79 110
-70 4 3 7 1 7 -5 0 -6 7 -9 15 -6 8 4 15 2 15 -4 0 -6 8 -9 18 -7 9 1 27 -1
38 -6 13 -4 26 -3 33 4 7 7 11 7 11 1 0 -6 10 -10 23 -8 12 1 22 3 22 4 0 1
15 3 34 6 65 8 211 108 211 145 0 6 6 7 13 3 6 -4 9 -4 5 1 -4 4 1 20 12 36
15 20 17 29 8 32 -9 4 -8 6 3 6 9 1 16 7 17 14 0 6 4 28 8 47 12 59 6 187 -8
196 -5 3 -6 10 -3 15 4 5 1 9 -4 9 -6 0 -10 3 -9 8 4 18 -23 63 -34 56 -7 -4
-8 -3 -4 4 4 7 2 12 -3 12 -6 0 -10 6 -8 13 1 6 -6 11 -15 11 -9 -1 -14 4 -12
11 5 12 -56 65 -75 65 -6 0 -11 4 -11 8 0 10 -66 35 -100 38 -14 1 -38 5 -54
8 -16 3 -38 0 -49 -5 -14 -8 -18 -8 -13 0 10 15 -7 14 -22 -1 -7 -7 -12 -9
-12 -5 0 10 -79 -23 -123 -51 -21 -14 -36 -31 -33 -38 3 -7 0 -11 -7 -8 -17 6
-90 -64 -81 -78 5 -7 3 -8 -5 -3 -14 8 -63 -33 -55 -46 3 -5 -3 -6 -12 -2 -12
4 -15 3 -10 -5 4 -7 2 -12 -3 -12 -18 0 -61 -42 -54 -53 3 -6 2 -7 -4 -4 -5 3
-24 -7 -41 -22 -17 -16 -34 -26 -38 -22 -4 3 -4 1 -1 -5 4 -6 -5 -20 -20 -30
-14 -11 -45 -39 -69 -63 -24 -24 -44 -41 -44 -38 0 3 -18 -12 -41 -34 -22 -21
-45 -39 -50 -39 -6 0 -8 -4 -5 -9 3 -5 -15 -14 -39 -21 -25 -7 -45 -16 -45
-20 0 -9 -107 8 -131 21 -11 5 -19 7 -19 4 0 -3 -12 6 -26 20 -14 14 -30 22
-36 19 -8 -5 -9 -1 -5 10 4 10 1 19 -8 22 -8 4 -15 12 -15 19 0 7 -4 15 -9 17
-6 2 -12 17 -15 33 -2 17 -5 32 -7 35 -6 14 -3 100 3 100 5 0 7 3 6 8 -4 14
13 52 23 52 6 0 7 5 4 10 -3 6 -2 10 3 10 5 0 12 9 15 21 3 12 10 18 16 15 6
-4 16 2 23 14 7 11 18 20 24 20 6 0 17 6 24 14 6 8 19 12 27 9 12 -5 14 -3 8
8 -7 11 -5 11 10 -1 17 -14 18 -13 12 4 -6 14 -4 16 5 9 20 -15 58 -22 58 -11
0 7 5 6 13 -1 8 -6 17 -8 20 -4 4 3 7 1 7 -7 0 -10 3 -10 16 0 8 8 14 9 12 4
-2 -5 1 -11 7 -14 5 -3 21 -17 36 -32 14 -16 30 -28 35 -28 5 -1 20 -14 34
-30 29 -36 36 -37 66 -5 13 14 27 25 31 25 5 0 14 9 21 20 11 18 7 24 -30 57
-23 21 -49 46 -57 56 -9 9 -21 17 -28 17 -7 0 -13 4 -13 8 0 11 -66 42 -123
57 -31 9 -45 10 -40 3 4 -7 1 -8 -8 -2 -16 10 -20 10 -76 6z m942 -62 c3 -5 1
-10 -4 -10 -6 0 -11 5 -11 10 0 6 2 10 4 10 3 0 8 -4 11 -10z m-1031 -38 c3
-5 -1 -9 -9 -9 -8 0 -12 4 -9 9 3 4 7 8 9 8 2 0 6 -4 9 -8z m427 -95 c-10 -9
-11 -8 -5 6 3 10 9 15 12 12 3 -3 0 -11 -7 -18z m366 8 c0 -8 -4 -12 -9 -9 -5
3 -6 10 -3 15 9 13 12 11 12 -6z m-393 -33 c3 -5 -1 -9 -9 -9 -8 0 -12 4 -9 9
3 4 7 8 9 8 2 0 6 -4 9 -8z m231 -111 c3 -5 2 -12 -3 -15 -5 -3 -9 1 -9 9 0
17 3 19 12 6z m662 -60 c0 -11 -5 -18 -9 -15 -4 3 -5 11 -1 19 7 21 12 19 10
-4z m-1380 -196 c0 -8 -4 -12 -9 -9 -5 3 -6 10 -3 15 9 13 12 11 12 -6z m483
9 c0 -8 -19 -13 -24 -6 -3 5 1 9 9 9 8 0 15 -2 15 -3z m397 -9 c0 -8 -4 -12
-9 -9 -5 3 -6 10 -3 15 9 13 12 11 12 -6z m448 5 c-3 -5 -12 -10 -18 -10 -7 0
-6 4 3 10 19 12 23 12 15 0z m-1210 -40 c3 -5 1 -10 -4 -10 -6 0 -11 5 -11 10
0 6 2 10 4 10 3 0 8 -4 11 -10z m1000 -29 c3 -5 2 -12 -3 -15 -5 -3 -9 1 -9 9
0 17 3 19 12 6z m-1065 -7 c0 -8 -19 -13 -24 -6 -3 5 1 9 9 9 8 0 15 -2 15 -3z
m1024 -2 c3 -5 -1 -9 -9 -9 -8 0 -12 4 -9 9 3 4 7 8 9 8 2 0 6 -4 9 -8z"/>
<path d="M4877 8804 c-2 -2 -35 -6 -73 -8 -38 -3 -94 -8 -124 -12 -30 -4 -67
-8 -82 -8 -16 -1 -28 -3 -28 -6 0 -4 -10 -7 -22 -7 -34 -2 -143 -20 -143 -23
0 -1 -11 -3 -25 -5 -14 -1 -37 -7 -51 -13 -15 -6 -29 -9 -31 -7 -2 2 -25 -2
-51 -10 -26 -8 -47 -11 -47 -8 0 3 -6 1 -13 -5 -7 -6 -28 -14 -47 -17 -19 -3
-69 -17 -110 -31 -41 -13 -80 -24 -87 -24 -7 0 -13 -5 -13 -12 0 -6 -3 -9 -6
-5 -6 5 -101 -26 -159 -52 -29 -13 -58 -24 -74 -27 -8 -1 -17 -8 -21 -15 -4
-6 -12 -9 -18 -5 -5 3 -15 -1 -22 -9 -7 -8 -16 -12 -21 -9 -5 3 -9 0 -9 -7 0
-7 -3 -10 -6 -7 -8 8 -256 -121 -386 -200 -109 -67 -373 -253 -398 -281 -3 -3
-34 -31 -70 -61 -36 -30 -70 -59 -76 -65 -28 -24 -202 -195 -199 -195 1 0 -18
-22 -44 -48 -25 -26 -64 -70 -86 -97 -22 -27 -48 -57 -57 -67 -10 -10 -18 -20
-18 -23 0 -5 -33 -45 -58 -71 -7 -8 -11 -14 -8 -14 3 0 -2 -9 -12 -19 -37 -42
-128 -174 -123 -180 1 -2 -2 -7 -7 -10 -13 -8 -130 -202 -167 -277 -17 -32
-34 -62 -38 -65 -5 -3 -8 -8 -7 -10 1 -2 -17 -44 -40 -94 -23 -49 -42 -94 -43
-100 -1 -5 -4 -12 -7 -15 -11 -10 -88 -219 -91 -245 0 -5 -6 -16 -12 -23 -6
-8 -12 -21 -13 -30 -1 -10 -9 -39 -18 -67 -9 -27 -19 -61 -22 -75 -2 -14 -8
-32 -11 -40 -4 -8 -8 -22 -9 -30 -2 -8 -9 -40 -17 -70 -7 -30 -14 -57 -14 -60
-1 -3 -4 -16 -7 -30 -8 -36 -24 -120 -31 -170 -2 -14 -7 -43 -10 -65 -8 -51
-15 -110 -18 -155 -2 -19 -6 -41 -10 -47 -5 -8 -3 -13 3 -13 6 0 8 -5 4 -12
-5 -7 -9 -40 -10 -74 -1 -34 -3 -66 -6 -70 -9 -19 4 -422 17 -529 2 -16 7 -55
10 -85 4 -30 8 -62 9 -70 2 -8 6 -40 11 -70 4 -30 9 -64 12 -75 2 -11 6 -29 8
-40 4 -24 52 -224 66 -275 11 -40 19 -71 23 -85 1 -5 8 -21 16 -35 7 -14 12
-26 11 -28 -5 -6 12 -72 18 -72 4 0 8 -6 9 -12 1 -20 8 -40 22 -73 7 -16 15
-39 17 -50 2 -11 8 -24 13 -29 6 -6 10 -18 10 -28 0 -10 5 -18 10 -18 6 0 10
-6 10 -14 0 -7 17 -49 37 -92 20 -44 36 -82 35 -86 -1 -5 3 -8 10 -8 6 0 8 -3
5 -7 -4 -3 -2 -12 4 -19 6 -7 25 -41 43 -76 67 -130 191 -332 228 -372 10 -11
18 -25 18 -32 0 -7 4 -14 8 -16 4 -1 37 -41 72 -88 35 -47 66 -87 69 -90 3 -3
31 -34 61 -70 71 -84 62 -75 156 -171 45 -46 112 -111 149 -144 36 -33 76 -69
88 -80 12 -11 45 -38 72 -60 28 -22 52 -42 55 -45 3 -3 34 -27 70 -53 36 -27
73 -55 83 -63 9 -8 19 -14 21 -14 2 0 30 -17 62 -38 178 -117 222 -143 409
-236 66 -33 122 -61 125 -61 7 -2 36 -14 97 -41 28 -12 54 -20 57 -16 3 3 6
-1 6 -8 0 -7 3 -10 6 -7 4 3 16 1 28 -5 11 -7 29 -13 39 -15 10 -2 28 -8 40
-15 12 -7 31 -13 42 -15 11 -2 27 -6 35 -10 18 -7 15 -6 110 -34 41 -12 82
-24 90 -27 19 -6 28 -9 63 -15 15 -3 35 -8 45 -11 24 -7 79 -18 152 -30 14 -3
25 -5 25 -6 0 -1 14 -4 30 -6 17 -2 41 -7 55 -10 14 -4 36 -8 50 -9 14 -2 50
-5 80 -8 30 -4 82 -9 115 -13 33 -3 95 -7 137 -8 43 -2 81 -5 84 -9 4 -3 14
-2 23 3 10 5 23 5 31 0 7 -4 23 -5 35 0 11 4 28 4 37 -1 11 -6 19 -5 23 1 4 7
12 7 24 0 10 -5 21 -7 24 -3 5 5 135 13 259 17 27 0 48 3 48 6 0 3 12 6 28 7
15 0 50 3 77 7 97 13 109 15 235 41 62 12 152 32 160 35 3 1 10 3 15 4 6 1 30
8 55 16 25 7 48 14 53 16 4 1 10 3 15 4 4 1 12 3 17 4 6 1 37 10 70 21 33 10
62 19 65 20 3 0 10 3 15 6 8 5 75 29 95 34 9 3 44 17 99 42 29 13 58 25 64 26
13 2 316 154 367 184 60 35 145 88 150 93 3 3 26 18 52 33 26 15 53 33 60 40
7 6 39 30 71 51 31 22 57 43 57 48 0 4 5 8 11 8 6 0 16 6 24 12 7 7 30 27 50
43 201 162 412 374 547 548 10 12 29 36 43 52 14 17 61 82 105 145 44 63 83
120 87 125 50 65 279 498 298 565 3 8 16 43 25 65 16 39 72 190 74 200 1 6 5
16 9 23 5 6 6 12 2 12 -3 0 1 16 9 35 8 19 13 35 10 35 -3 0 0 8 5 18 6 11 12
30 14 43 3 13 12 48 20 77 9 28 13 52 10 52 -3 0 1 7 8 17 8 9 12 17 10 17 -4
1 0 28 14 96 3 14 8 40 11 59 3 18 8 43 10 55 2 11 6 39 9 61 10 67 10 70 18
83 5 7 3 12 -3 12 -6 0 -8 5 -4 11 7 12 12 55 18 151 2 36 6 70 8 75 7 14 3
431 -4 439 -4 3 -3 15 3 25 5 11 6 19 1 19 -5 0 -9 17 -10 38 0 38 -7 110 -16
172 -3 19 -8 55 -11 80 -3 25 -8 56 -11 70 -3 14 -7 39 -10 55 -10 58 -13 71
-39 175 -14 58 -27 114 -30 125 -2 11 -4 21 -5 23 -2 1 -4 7 -5 12 -1 6 -3 11
-5 13 -1 2 -6 20 -13 50 -1 6 -6 18 -10 25 -5 6 -6 12 -2 12 3 0 -1 13 -10 30
-8 16 -15 31 -14 32 0 2 -4 16 -10 31 -6 16 -11 32 -11 37 0 5 -6 24 -14 42
-8 18 -36 85 -62 148 -26 63 -53 118 -59 122 -5 4 -7 8 -3 8 4 0 -18 48 -49
108 -31 59 -61 117 -67 129 -6 13 -15 23 -19 23 -5 0 -5 5 -2 10 3 6 1 10 -4
10 -6 0 -11 5 -11 11 0 31 -319 479 -357 502 -7 4 -13 12 -13 16 0 13 -281
311 -294 311 -2 0 -22 17 -44 38 -21 20 -60 55 -86 77 -26 22 -53 45 -59 51
-7 5 -48 37 -92 70 -44 32 -81 62 -83 67 -2 4 -8 7 -13 7 -6 0 -15 4 -22 10
-60 49 -77 61 -77 53 0 -4 -4 -3 -8 2 -8 12 -105 74 -147 95 -16 8 -32 18 -35
21 -3 4 -36 23 -75 44 -38 20 -76 42 -84 48 -8 7 -15 10 -15 8 -1 -2 -46 18
-101 43 -55 26 -109 51 -120 56 -23 11 -76 32 -87 35 -5 2 -11 4 -15 5 -5 1
-11 2 -15 1 -5 0 -8 3 -8 7 0 5 -6 9 -12 10 -7 0 -53 15 -103 32 -49 18 -101
34 -115 37 -13 2 -28 10 -32 16 -4 7 -8 9 -8 5 0 -3 -24 0 -52 8 -29 8 -66 18
-83 21 -16 3 -38 9 -48 15 -10 5 -21 7 -24 4 -3 -2 -16 -1 -30 5 -13 5 -38 11
-56 14 -18 3 -45 8 -62 12 -16 4 -41 7 -55 8 -14 2 -25 3 -25 4 0 8 -182 30
-285 35 -25 1 -50 5 -55 8 -11 6 -502 8 -508 2z m562 -208 c34 -3 79 -8 100
-11 42 -7 70 -11 131 -19 25 -3 57 -8 73 -11 15 -3 37 -7 50 -9 12 -2 29 -7
37 -10 15 -5 85 -18 108 -19 6 0 12 -4 12 -9 0 -5 4 -7 9 -4 5 3 27 -1 50 -9
23 -8 41 -12 41 -8 0 3 7 0 15 -7 8 -6 19 -9 24 -6 5 4 12 2 15 -3 3 -5 23
-12 43 -16 21 -4 43 -10 48 -15 6 -4 24 -10 40 -14 39 -10 131 -45 265 -101
80 -34 338 -164 353 -179 7 -6 33 -22 60 -35 26 -13 47 -28 47 -33 0 -4 5 -8
12 -8 13 0 161 -100 166 -112 2 -4 8 -8 14 -8 5 0 35 -20 66 -45 31 -26 70
-56 85 -68 56 -43 126 -106 252 -226 57 -55 192 -202 227 -246 12 -16 29 -37
37 -45 25 -26 145 -192 196 -270 26 -41 58 -91 70 -110 51 -78 204 -372 211
-402 1 -5 3 -10 4 -13 1 -3 3 -8 5 -12 1 -5 11 -28 22 -53 42 -94 113 -307
153 -460 18 -70 42 -176 46 -200 2 -14 5 -36 8 -50 20 -114 37 -256 39 -327 1
-29 4 -53 7 -53 8 0 4 -403 -4 -495 -17 -174 -24 -240 -26 -240 -3 0 -7 -26
-14 -84 -4 -29 -9 -57 -11 -61 -3 -4 -7 -25 -11 -45 -9 -56 -11 -66 -25 -115
-7 -25 -12 -49 -10 -54 1 -4 -4 -14 -10 -22 -6 -8 -9 -14 -6 -14 3 0 1 -15 -4
-32 -6 -18 -12 -40 -14 -48 -2 -8 -9 -28 -15 -45 -7 -16 -14 -40 -16 -52 -2
-12 -13 -42 -23 -66 -11 -25 -17 -48 -14 -51 4 -3 0 -6 -7 -6 -7 0 -11 -3 -7
-6 3 -3 -5 -30 -18 -59 -13 -30 -21 -56 -17 -59 3 -3 0 -6 -6 -6 -7 0 -11 -3
-10 -7 3 -17 -130 -296 -143 -301 -5 -2 -7 -8 -4 -12 3 -5 -3 -18 -15 -30 -11
-11 -20 -24 -20 -29 0 -12 -63 -115 -72 -119 -5 -2 -8 -8 -8 -14 0 -8 -77
-126 -113 -173 -4 -5 -34 -46 -68 -90 -95 -125 -217 -261 -348 -386 -140 -134
-182 -171 -305 -262 -50 -38 -98 -74 -106 -80 -8 -7 -40 -28 -70 -47 -30 -19
-61 -40 -68 -47 -7 -7 -20 -13 -28 -13 -8 0 -14 -4 -14 -10 0 -5 -5 -10 -11
-10 -6 0 -23 -8 -37 -18 -36 -25 -256 -144 -272 -147 -3 -1 -32 -14 -65 -29
-33 -16 -82 -37 -110 -47 -27 -11 -59 -24 -70 -28 -33 -15 -59 -24 -79 -28
-11 -2 -25 -8 -33 -14 -7 -6 -13 -8 -13 -4 0 4 -6 2 -13 -4 -8 -6 -17 -8 -20
-4 -4 3 -7 1 -7 -6 0 -7 -4 -10 -8 -7 -5 3 -33 -3 -63 -13 -47 -17 -109 -34
-116 -32 -2 0 -21 -6 -43 -14 -22 -8 -43 -14 -45 -14 -3 0 -20 -3 -38 -6 -17
-3 -39 -7 -47 -9 -8 -1 -40 -8 -70 -14 -30 -6 -71 -14 -90 -16 -19 -3 -46 -8
-59 -11 -14 -2 -52 -7 -85 -10 -34 -3 -77 -8 -96 -10 -19 -2 -84 -6 -143 -9
-59 -3 -112 -8 -117 -11 -6 -4 -10 -2 -10 3 0 7 -63 8 -95 2 -5 -1 -12 -1 -15
0 -3 1 -43 4 -90 6 -117 5 -219 12 -255 18 -16 3 -50 7 -75 10 -25 3 -54 7
-65 9 -11 3 -54 11 -95 18 -81 14 -87 15 -95 19 -3 1 -14 4 -25 5 -11 1 -21 4
-22 5 -2 1 -12 4 -23 6 -45 6 -79 15 -97 25 -10 5 -18 7 -18 3 0 -3 -7 -1 -15
6 -8 7 -15 10 -15 7 0 -4 -18 0 -40 8 -22 8 -44 15 -48 16 -8 2 -14 3 -72 22
-110 36 -332 127 -341 140 -3 5 -9 8 -13 7 -10 -2 -161 72 -164 82 -2 4 -12 8
-22 8 -10 0 -21 4 -24 9 -3 5 -25 19 -48 31 -24 12 -45 25 -48 29 -3 3 -23 15
-45 26 -22 11 -49 28 -59 37 -11 10 -28 20 -38 24 -10 3 -18 9 -18 13 0 5 -13
14 -30 21 -16 7 -30 16 -30 21 0 4 -8 10 -17 13 -10 3 -30 16 -45 29 -15 13
-39 32 -53 43 -74 53 -125 97 -125 107 0 5 -3 8 -6 5 -19 -20 -369 343 -514
532 -19 25 -40 51 -47 58 -7 7 -13 20 -13 28 0 8 -4 14 -9 14 -5 0 -42 52 -82
116 -41 64 -84 131 -96 150 -12 19 -20 34 -16 34 3 0 -1 8 -9 18 -15 16 -129
246 -161 322 -8 19 -22 51 -30 70 -14 31 -47 126 -100 285 -10 28 -19 59 -22
70 -2 11 -11 47 -20 80 -9 33 -20 80 -25 105 -5 25 -12 56 -15 70 -3 14 -8 36
-11 50 -2 14 -7 41 -11 60 -3 19 -7 49 -9 65 -2 17 -6 48 -9 70 -25 191 -34
470 -20 660 12 174 13 189 19 220 2 17 7 48 11 70 3 23 7 52 10 65 3 13 7 42
11 65 7 46 12 70 14 70 2 0 7 27 12 60 2 11 7 26 12 33 4 7 5 16 2 19 -3 3 -1
12 5 20 6 7 9 13 6 13 -3 0 -1 15 4 33 6 17 12 39 14 47 2 8 4 15 5 15 2 0 5
14 14 53 3 12 8 27 11 32 7 11 16 47 17 68 1 6 5 12 10 12 4 0 7 3 6 8 -3 10
33 115 43 127 5 5 9 17 9 27 0 10 5 18 11 18 5 0 8 3 5 8 -2 4 2 22 9 40 8 18
15 34 15 37 4 16 143 286 187 364 60 103 167 263 219 328 19 23 34 45 34 49 0
3 8 14 18 23 10 9 33 36 52 61 92 119 423 447 489 484 9 5 21 15 26 22 40 48
454 320 518 340 12 4 24 10 27 13 3 3 28 17 55 31 28 14 53 29 56 33 3 5 8 8
10 6 4 -2 41 13 114 46 49 22 184 77 197 79 7 2 20 6 28 9 43 18 130 45 130
41 0 -2 14 3 30 11 17 9 36 15 43 14 6 -1 24 3 39 9 15 6 40 13 55 16 15 2 30
5 33 6 3 1 9 2 14 1 4 -1 13 2 20 7 6 5 19 8 29 7 9 -2 17 0 17 4 0 4 10 7 23
8 12 0 36 4 52 8 17 4 40 7 53 8 12 1 22 5 22 10 0 4 4 6 9 3 5 -3 35 -1 66 5
32 6 79 12 104 14 25 2 46 5 46 5 0 1 31 3 69 6 38 2 70 5 73 7 5 6 465 0 542
-7z"/>
<path d="M5068 8385 c-2 -1 -30 -6 -63 -10 -32 -3 -62 -8 -65 -10 -4 -2 -22
-7 -41 -10 -53 -9 -143 -36 -156 -47 -7 -6 -13 -8 -13 -4 0 4 -17 -2 -37 -13
-21 -10 -42 -20 -48 -21 -21 -5 -40 -14 -45 -21 -3 -4 -12 -9 -20 -11 -8 -2
-34 -15 -57 -30 -23 -16 -46 -28 -52 -28 -6 0 -11 -3 -11 -7 0 -5 -18 -19 -40
-33 -22 -13 -40 -28 -40 -32 0 -4 -5 -8 -11 -8 -11 0 -165 -151 -204 -200
-117 -147 -213 -370 -238 -555 -1 -11 -6 -26 -10 -32 -5 -7 -4 -13 1 -13 5 0
6 -19 3 -42 -16 -105 13 -311 60 -435 6 -15 10 -29 10 -30 -1 -2 17 -38 40
-80 213 -402 639 -604 1049 -498 127 33 288 129 363 217 63 74 77 94 77 106 0
6 4 12 9 12 5 0 14 12 19 28 6 15 20 52 32 82 53 141 41 344 -28 450 -9 14
-17 28 -17 32 0 4 -20 30 -45 58 -141 159 -370 191 -504 69 -10 -10 -28 -38
-41 -64 -42 -88 -4 -166 88 -184 47 -8 101 -46 92 -62 -3 -4 -1 -10 4 -13 8
-5 8 -75 1 -83 -2 -3 -6 -16 -9 -30 -3 -19 -61 -72 -106 -99 -45 -26 -58 -29
-140 -29 -81 0 -97 4 -158 33 -157 77 -256 236 -263 422 -4 110 16 203 65 300
41 82 69 119 141 187 68 64 79 73 90 73 6 0 10 5 10 10 0 6 6 10 14 10 7 0 19
7 26 15 6 8 15 14 18 13 4 -1 21 5 37 14 40 21 159 58 215 66 40 6 216 7 278
1 12 -1 25 -6 28 -10 3 -5 9 -7 14 -4 13 8 154 -42 228 -81 95 -51 158 -98
237 -179 153 -155 251 -353 282 -570 10 -66 9 -247 0 -310 -16 -104 -63 -258
-90 -292 -5 -7 -7 -13 -3 -13 10 0 -62 -128 -112 -200 -108 -152 -314 -323
-487 -405 -60 -28 -206 -81 -248 -89 -12 -3 -33 -8 -47 -11 -92 -20 -186 -29
-310 -28 -100 1 -185 7 -185 14 0 1 -13 3 -30 5 -16 1 -50 8 -75 14 -25 7 -54
14 -66 16 -11 2 -67 19 -124 38 -57 20 -107 33 -111 30 -4 -2 -10 0 -13 5 -3
4 -25 12 -48 16 -24 5 -45 9 -48 10 -3 0 -25 5 -50 9 -25 5 -54 10 -65 13 -64
14 -330 19 -432 8 -34 -3 -72 -7 -85 -9 -13 -1 -29 -6 -36 -10 -7 -4 -12 -5
-12 -3 0 3 -37 -4 -82 -14 -87 -21 -94 -23 -118 -32 -44 -16 -126 -41 -132
-39 -5 1 -8 -3 -8 -10 0 -6 -3 -9 -6 -5 -18 18 -354 -182 -444 -264 -73 -66
-148 -139 -144 -139 3 0 -5 -11 -18 -24 -21 -21 -76 -85 -96 -111 -49 -64
-147 -243 -185 -335 -5 -14 -14 -34 -19 -45 -5 -12 -10 -27 -11 -35 -2 -8 -5
-19 -9 -25 -9 -15 -48 -190 -55 -248 -4 -29 -7 -80 -7 -114 -1 -33 -3 -60 -6
-58 -3 2 -4 -13 -3 -33 1 -21 2 -37 3 -37 1 0 3 -27 5 -60 6 -89 13 -133 30
-205 20 -84 19 -83 28 -97 5 -7 6 -13 3 -13 -14 0 100 -261 116 -268 5 -2 8
-8 8 -13 0 -16 78 -128 134 -194 117 -137 239 -235 391 -315 71 -38 183 -85
225 -96 111 -28 126 -31 190 -41 59 -10 292 -10 355 0 240 38 461 147 620 305
77 77 115 120 115 131 0 5 3 11 8 13 10 4 72 96 72 107 0 4 11 28 23 52 13 24
29 62 36 84 7 22 15 47 18 55 7 18 9 25 17 70 49 261 2 497 -139 695 -58 82
-176 195 -202 195 -7 0 -13 4 -13 9 0 8 -109 66 -120 64 -3 -1 -9 2 -15 7 -10
8 -87 32 -115 36 -8 1 -28 5 -45 8 -67 13 -178 6 -284 -18 -69 -16 -193 -89
-254 -150 -42 -41 -97 -132 -117 -192 -58 -175 6 -365 147 -434 60 -30 99 -35
154 -20 81 22 119 94 86 163 -18 38 -14 78 11 112 24 33 59 48 122 51 95 4
192 -62 240 -162 28 -60 31 -74 34 -153 9 -180 -105 -352 -291 -443 -108 -53
-183 -68 -313 -64 -122 4 -229 34 -325 91 -31 19 -59 35 -61 35 -21 0 -161
144 -213 220 -46 67 -133 280 -114 280 3 0 1 6 -4 13 -13 17 -18 66 -18 187 0
123 13 219 36 262 5 10 8 18 5 18 -7 0 48 130 79 186 60 108 176 241 281 322
37 29 188 121 199 122 3 0 26 10 52 21 27 12 55 22 63 24 8 3 40 11 70 20 77
22 101 27 135 29 17 1 35 4 40 8 21 12 301 0 380 -17 44 -9 87 -18 95 -20 14
-2 27 -6 68 -22 9 -3 20 -7 25 -8 4 -2 9 -4 12 -5 3 -1 8 -3 13 -4 21 -3 212
-101 212 -108 0 -4 6 -8 13 -8 19 0 182 -131 254 -206 58 -60 193 -241 193
-259 0 -4 9 -20 21 -36 11 -16 17 -29 12 -29 -4 0 -3 -4 2 -8 6 -4 19 -27 29
-52 10 -25 22 -54 27 -65 10 -25 39 -114 45 -137 2 -10 7 -28 10 -40 11 -46
18 -83 18 -105 1 -13 5 -23 10 -23 5 0 7 -3 4 -6 -4 -3 -2 -20 3 -37 6 -18 12
-41 14 -52 3 -12 14 -48 25 -80 12 -33 22 -64 23 -70 8 -31 42 -111 50 -116 5
-3 9 -9 8 -12 -1 -22 126 -247 140 -247 5 0 9 -5 9 -11 0 -36 233 -285 357
-381 217 -168 514 -290 791 -326 133 -17 409 -7 522 19 25 6 50 12 55 13 166
36 383 138 535 250 88 65 120 96 250 236 82 89 206 315 250 455 23 75 25 84
34 136 3 19 8 45 11 58 2 13 7 56 10 94 3 39 9 75 12 80 3 6 1 7 -5 3 -9 -5
-9 0 -3 17 6 14 7 27 5 30 -3 3 -7 36 -9 74 -2 37 -5 68 -6 68 -2 0 -3 9 -12
70 -5 37 -49 188 -56 195 -3 3 -7 12 -9 20 -9 47 -126 252 -167 293 -8 9 -15
18 -15 22 0 9 -160 165 -169 165 -5 0 -11 4 -13 8 -5 14 -118 87 -187 122 -70
35 -222 92 -229 85 -2 -2 -16 1 -30 6 -71 27 -321 31 -432 6 -73 -16 -160 -42
-160 -49 0 -4 -7 -8 -17 -8 -19 0 -166 -79 -171 -91 -2 -5 -10 -9 -17 -9 -7 0
-16 -7 -19 -16 -4 -9 -9 -14 -12 -11 -9 9 -104 -85 -163 -163 -147 -194 -195
-410 -146 -654 10 -48 62 -163 97 -214 41 -60 110 -129 168 -168 206 -139 473
-125 626 32 128 131 122 336 -11 395 -56 25 -92 17 -135 -30 -60 -66 -102 -72
-172 -26 -106 70 -105 247 2 369 93 105 263 161 405 133 22 -4 52 -10 67 -13
72 -14 196 -91 272 -169 67 -69 149 -226 160 -307 3 -18 8 -44 11 -58 14 -65
1 -254 -22 -310 -3 -8 -8 -23 -9 -32 -8 -37 -79 -172 -119 -226 -75 -101 -175
-192 -260 -238 -11 -6 -37 -20 -57 -32 -41 -24 -194 -79 -239 -87 -158 -28
-392 -25 -451 6 -9 5 -21 8 -25 7 -28 -6 -233 77 -290 119 -17 13 -36 23 -42
23 -5 0 -16 6 -23 13 -7 7 -31 26 -53 42 -40 30 -152 138 -191 186 -18 22 -68
96 -112 164 -12 19 -34 65 -37 75 0 3 -6 14 -12 26 -27 48 -83 236 -88 294 -2
19 -4 35 -5 35 -10 0 -14 276 -5 315 3 14 8 39 10 55 18 129 54 242 119 375
86 175 210 331 376 470 51 43 155 147 200 200 12 14 30 35 41 48 44 51 142
206 194 308 31 60 56 110 55 112 -1 1 8 27 19 57 35 94 74 251 89 360 9 63 9
343 0 410 -29 230 -118 467 -246 660 -78 118 -93 136 -192 236 -84 85 -147
137 -236 197 -75 50 -241 135 -289 148 -5 1 -30 10 -55 19 -25 10 -54 19 -65
21 -11 2 -38 8 -60 14 -86 23 -216 38 -337 38 -69 0 -128 -1 -130 -3z"/>
<path d="M1329 7290 c-67 -19 -113 -57 -140 -116 -16 -37 -33 -124 -30 -161 2
-26 2 -39 -1 -75 -2 -20 0 -34 4 -32 4 3 4 -5 0 -17 -5 -12 -6 -40 -2 -61 4
-21 5 -38 1 -38 -3 0 -5 -21 -3 -47 3 -68 3 -83 0 -125 -2 -20 0 -34 4 -32 5
3 4 -5 0 -18 -16 -43 -5 -58 43 -58 l43 0 0 130 c-1 72 2 133 5 136 3 3 16 -1
29 -10 33 -21 125 -30 174 -17 137 37 201 169 170 351 -14 80 -64 146 -133
175 -43 18 -126 26 -164 15z m157 -101 c66 -54 77 -233 21 -316 -12 -18 -35
-38 -52 -45 -44 -19 -127 -15 -166 8 l-34 20 -3 100 c-6 166 24 241 102 263
33 8 105 -8 132 -30z"/>
<path d="M8979 7290 c-62 -17 -139 -83 -139 -120 0 -10 -6 -20 -12 -22 -10 -4
-14 -79 -16 -321 l-3 -317 44 0 45 0 -1 135 c-2 131 -1 135 18 129 11 -4 23
-11 27 -17 4 -6 42 -11 90 -11 66 -1 91 4 123 21 86 46 124 118 129 248 2 44
-20 143 -36 163 -6 6 -7 12 -3 12 16 0 -68 71 -102 85 -42 18 -126 25 -164 15z
m138 -90 c28 -17 64 -67 68 -95 1 -5 3 -14 4 -20 2 -5 3 -37 2 -70 -2 -97 -30
-164 -79 -184 -45 -19 -90 -20 -142 -5 -56 17 -84 47 -69 75 5 10 5 20 0 23
-4 3 -5 24 -1 46 4 22 4 42 0 45 -11 7 6 95 25 136 9 20 29 43 44 52 36 23
109 21 148 -3z"/>
<path d="M1297 3281 c-27 -9 -65 -32 -84 -50 -35 -33 -78 -116 -68 -131 3 -5
2 -11 -2 -13 -9 -6 -9 -124 0 -147 3 -8 11 -31 17 -52 13 -43 62 -98 111 -124
46 -25 180 -26 226 -1 57 30 104 90 120 150 9 35 14 171 6 187 -3 8 -7 21 -9
28 -12 58 -68 122 -131 149 -50 20 -132 22 -186 4z m158 -77 c32 -15 61 -52
73 -94 3 -8 5 -53 6 -100 0 -72 -3 -91 -22 -122 -29 -47 -61 -67 -114 -72 -58
-6 -121 24 -142 67 -19 41 -34 106 -30 132 2 10 4 35 5 54 4 48 32 104 65 128
35 26 113 29 159 7z"/>
<path d="M8787 3219 c-71 -16 -143 -100 -154 -179 -8 -50 -8 -162 -1 -166 4
-3 5 -10 3 -17 -2 -7 8 -37 23 -67 53 -107 170 -149 276 -99 26 12 53 30 61
41 12 18 42 17 31 0 -12 -20 47 -62 88 -62 43 0 56 10 56 45 0 26 -4 32 -17
29 -27 -6 -47 11 -49 45 -1 16 -5 34 -8 40 -4 5 -3 12 1 14 5 3 6 60 3 127 -3
67 -3 124 -1 126 3 2 4 23 2 47 -1 23 -2 49 -2 58 0 13 -9 17 -35 16 -30 -1
-35 -5 -40 -34 -7 -35 -18 -42 -31 -19 -25 44 -131 72 -206 55z m141 -80 c56
-19 82 -85 82 -204 0 -86 -17 -135 -60 -167 -29 -21 -103 -30 -140 -16 -31 12
-79 66 -81 93 -2 20 -5 36 -9 45 -5 11 -5 110 0 110 3 0 6 11 6 25 3 41 33 94
62 110 32 17 97 19 140 4z"/>
<path d="M4970 1260 c-4 -8 -6 -23 -4 -34 3 -20 24 -47 24 -30 0 5 51 9 120
10 66 0 120 -3 120 -8 0 -4 -5 -8 -11 -8 -5 0 -8 -4 -5 -9 4 -5 3 -11 -1 -13
-5 -1 -26 -25 -48 -53 -21 -27 -44 -53 -50 -57 -5 -4 -6 -8 -2 -8 4 0 -2 -10
-13 -22 -26 -28 -141 -200 -142 -213 -1 -5 -7 -28 -14 -51 -18 -59 -8 -126 25
-173 19 -27 109 -74 161 -85 119 -24 139 -57 92 -154 l-21 -43 47 3 c48 3 66
21 75 74 1 10 5 24 8 29 10 17 1 75 -15 100 -15 23 -45 36 -171 75 -104 32
-127 67 -112 167 6 35 67 153 79 153 5 0 8 5 8 12 0 6 7 18 15 27 29 30 85
110 85 121 0 6 5 8 10 5 6 -3 10 -2 10 3 0 5 22 40 50 77 31 42 49 76 48 91
l-2 23 -179 3 c-151 3 -180 1 -187 -12z"/>
</g>
</svg>
