<svg width="1021" height="1028" viewBox="0 0 1021 1028" fill="none" xmlns="http://www.w3.org/2000/svg">
<path d="M877.02 377V325.5C877.02 319.433 877.986 314.4 879.92 310.4C881.853 306.4 884.52 303.4 887.92 301.4C891.386 299.4 895.353 298.4 899.82 298.4C905.02 298.4 909.453 299.533 913.12 301.8C916.853 304 919.686 307.2 921.62 311.4C923.553 315.6 924.52 320.7 924.52 326.7C924.52 332.367 923.486 337.267 921.42 341.4C919.353 345.467 916.486 348.6 912.82 350.8C909.22 352.933 905.086 354 900.42 354C897.753 354 895.153 353.633 892.62 352.9C890.086 352.1 887.853 350.967 885.92 349.5H885.42C885.553 350.567 885.653 352.3 885.72 354.7C885.786 357.1 885.82 359.8 885.82 362.8V377H877.02ZM900.32 346.7C903.52 346.7 906.253 345.933 908.52 344.4C910.786 342.867 912.486 340.633 913.62 337.7C914.82 334.7 915.42 331.033 915.42 326.7C915.42 319.567 914.053 314.3 911.32 310.9C908.653 307.5 904.753 305.8 899.62 305.8C895.153 305.8 891.753 307.467 889.42 310.8C887.086 314.067 885.92 319 885.92 325.6V341.8C887.853 343.467 890.053 344.7 892.52 345.5C895.053 346.3 897.653 346.7 900.32 346.7Z" fill="#FF8328"/>
<path d="M880.3 761C876.033 761 872.267 759.967 869 757.9C865.733 755.833 863.167 752.767 861.3 748.7C859.433 744.567 858.5 739.467 858.5 733.4C858.5 724.333 860.467 717.4 864.4 712.6C868.4 707.8 873.833 705.4 880.7 705.4C883.233 705.4 885.533 705.767 887.6 706.5C889.667 707.167 891.5 708.133 893.1 709.4C894.767 710.6 896.167 712.033 897.3 713.7H897.7L899 706.4H906V748.2C906 750.267 906.4 751.733 907.2 752.6C908 753.4 908.967 753.8 910.1 753.8C910.633 753.8 911.2 753.733 911.8 753.6C912.4 753.467 912.833 753.367 913.1 753.3V759.7C912.767 759.9 912.3 760.1 911.7 760.3C911.1 760.5 910.433 760.667 909.7 760.8C908.967 760.933 908.233 761 907.5 761C905.033 761 902.967 760.4 901.3 759.2C899.7 758 898.533 755.867 897.8 752.8H897.1C896.033 754.4 894.7 755.833 893.1 757.1C891.5 758.3 889.633 759.267 887.5 760C885.367 760.667 882.967 761 880.3 761ZM882.1 753.7C885.767 753.7 888.7 753 890.9 751.6C893.167 750.2 894.8 748.033 895.8 745.1C896.8 742.167 897.3 738.433 897.3 733.9V733.3C897.3 726.633 896.167 721.533 893.9 718C891.7 714.467 887.733 712.7 882 712.7C877.133 712.7 873.5 714.5 871.1 718.1C868.767 721.633 867.6 726.767 867.6 733.5C867.6 740.167 868.833 745.2 871.3 748.6C873.767 752 877.367 753.7 882.1 753.7Z" fill="#FF8328"/>
<path d="M516.4 997.2C517.533 995.067 518.5 992.9 519.3 990.7C520.167 988.5 520.6 986.667 520.6 985.2C520.6 983.933 520.4 982.867 520 982C519.667 981.2 518.867 980.467 517.6 979.8C516.4 979.2 514.533 978.633 512 978.1C506.267 976.833 501.767 975.3 498.5 973.5C495.233 971.633 492.9 969.433 491.5 966.9C490.167 964.3 489.5 961.3 489.5 957.9C489.5 954.1 490.3 950.333 491.9 946.6C493.567 942.867 495.867 938.967 498.8 934.9C501.733 930.767 505.067 926.267 508.8 921.4L519.7 907.3C519.433 907.3 518.5 907.333 516.9 907.4C515.367 907.467 513.467 907.533 511.2 907.6C509 907.667 506.767 907.7 504.5 907.7H492.5V901H529.7V906.3L514.7 926.2C510.833 931.4 507.7 935.767 505.3 939.3C502.967 942.833 501.267 945.967 500.2 948.7C499.133 951.367 498.6 954.033 498.6 956.7C498.6 958.967 499 960.933 499.8 962.6C500.6 964.267 502.167 965.733 504.5 967C506.9 968.267 510.5 969.467 515.3 970.6C518.767 971.4 521.533 972.3 523.6 973.3C525.667 974.3 527.133 975.533 528 977C528.933 978.467 529.4 980.367 529.4 982.7C529.4 984.633 529.2 986.433 528.8 988.1C528.4 989.833 527.867 991.433 527.2 992.9C526.533 994.367 525.833 995.8 525.1 997.2H516.4Z" fill="#FF8328"/>
<path d="M159.1 726.1C159.1 730.567 158.5 734.533 157.3 738C156.167 741.4 154.5 744.3 152.3 746.7C150.167 749.1 147.533 750.933 144.4 752.2C141.333 753.4 137.9 754 134.1 754C130.567 754 127.3 753.4 124.3 752.2C121.3 750.933 118.7 749.1 116.5 746.7C114.3 744.3 112.567 741.4 111.3 738C110.1 734.533 109.5 730.567 109.5 726.1C109.5 720.167 110.5 715.167 112.5 711.1C114.5 706.967 117.367 703.833 121.1 701.7C124.833 699.5 129.267 698.4 134.4 698.4C139.267 698.4 143.533 699.5 147.2 701.7C150.933 703.833 153.833 706.967 155.9 711.1C158.033 715.167 159.1 720.167 159.1 726.1ZM118.6 726.1C118.6 730.3 119.133 733.967 120.2 737.1C121.333 740.167 123.067 742.533 125.4 744.2C127.733 745.867 130.7 746.7 134.3 746.7C137.9 746.7 140.867 745.867 143.2 744.2C145.533 742.533 147.233 740.167 148.3 737.1C149.433 733.967 150 730.3 150 726.1C150 721.833 149.433 718.2 148.3 715.2C147.167 712.2 145.433 709.9 143.1 708.3C140.833 706.633 137.867 705.8 134.2 705.8C128.733 705.8 124.767 707.6 122.3 711.2C119.833 714.8 118.6 719.767 118.6 726.1Z" fill="#FF8328"/>
<path d="M112 377V325.5C112 319.433 112.967 314.4 114.9 310.4C116.833 306.4 119.5 303.4 122.9 301.4C126.367 299.4 130.333 298.4 134.8 298.4C140 298.4 144.433 299.533 148.1 301.8C151.833 304 154.667 307.2 156.6 311.4C158.533 315.6 159.5 320.7 159.5 326.7C159.5 332.367 158.467 337.267 156.4 341.4C154.333 345.467 151.467 348.6 147.8 350.8C144.2 352.933 140.067 354 135.4 354C132.733 354 130.133 353.633 127.6 352.9C125.067 352.1 122.833 350.967 120.9 349.5H120.4C120.533 350.567 120.633 352.3 120.7 354.7C120.767 357.1 120.8 359.8 120.8 362.8V377H112ZM135.3 346.7C138.5 346.7 141.233 345.933 143.5 344.4C145.767 342.867 147.467 340.633 148.6 337.7C149.8 334.7 150.4 331.033 150.4 326.7C150.4 319.567 149.033 314.3 146.3 310.9C143.633 307.5 139.733 305.8 134.6 305.8C130.133 305.8 126.733 307.467 124.4 310.8C122.067 314.067 120.9 319 120.9 325.6V341.8C122.833 343.467 125.033 344.7 127.5 345.5C130.033 346.3 132.633 346.7 135.3 346.7Z" fill="#FF8328"/>
<path d="M1011 514C1011 792.416 786.854 1018 510.5 1018C234.146 1018 10 792.416 10 514C10 235.584 234.146 10 510.5 10C786.854 10 1011 235.584 1011 514Z" stroke="#FF8328" stroke-width="20"/>
<path d="M864.674 513.5C864.674 710.39 705.064 870 508.174 870C311.285 870 151.674 710.39 151.674 513.5C151.674 316.61 311.285 157 508.174 157C705.064 157 864.674 316.61 864.674 513.5Z" stroke="#FF8328" stroke-width="20"/>
<path d="M682.355 593.471C682.989 592.188 684.143 590.892 685.338 590.086C686.613 589.228 688.362 588.624 689.895 588.456C691.603 588.268 693.631 588.535 695.255 589.091C697.099 589.722 699.058 590.923 700.502 592.22C702.147 593.697 703.687 595.784 704.676 597.75C705.798 599.981 706.595 602.792 706.88 605.267C707.201 608.054 706.991 611.327 706.381 614.068C705.7 617.128 704.311 620.515 702.699 623.216C700.915 626.206 698.295 629.314 695.681 631.635C692.807 634.187 689.035 636.604 685.527 638.21C681.7 639.962 676.987 641.308 672.81 641.897C668.279 642.537 662.96 642.497 658.432 641.841C653.547 641.136 648.056 639.501 643.568 637.472C638.751 635.295 633.587 631.992 629.571 628.581C625.28 624.936 620.964 620.043 617.856 615.373C614.546 610.401 611.574 604.151 609.768 598.476C607.852 592.456 606.65 585.231 606.464 578.924C606.267 572.253 607.14 564.557 608.78 558.083C610.509 551.255 613.614 543.686 617.142 537.567C620.854 531.133 626.167 524.328 631.493 519.11C637.083 513.634 644.392 508.225 651.263 504.422C658.457 500.439 667.365 496.994 675.376 495.046C683.749 493.011 693.694 491.983 702.313 492.216C711.306 492.46 721.597 494.143 730.202 496.73C739.164 499.424 749.026 503.914 756.945 508.853C765.179 513.989 773.818 521.167 780.382 528.266C787.198 535.639 793.854 545.164 798.455 554.048C803.226 563.262 807.243 574.583 809.382 584.711C811.598 595.201 812.48 607.593 811.817 618.287C811.131 629.352 808.592 641.955 804.98 652.452C801.247 663.297 795.245 675.184 788.755 684.682C782.054 694.488 772.809 704.722 763.734 712.449C754.374 720.418 742.366 728.137 731.215 733.406C719.725 738.836 705.672 743.312 693.141 745.582C680.24 747.92 665.055 748.631 651.983 747.554C638.538 746.448 623.268 743.121 610.585 738.583C597.549 733.919 583.307 726.57 571.962 718.705C560.309 710.628 548.191 699.571 539.085 688.77C529.739 677.683 520.739 663.525 514.655 650.415C508.415 636.969 503.351 620.572 500.887 605.985C498.64 594.371 494.274 581.358 489.014 570.732C483.918 560.44 476.481 549.371 468.821 540.76C461.41 532.427 451.612 523.957 442.239 517.839C433.177 511.926 421.855 506.483 411.535 503.13C401.571 499.894 389.62 497.663 379.143 497.132C369.04 496.619 357.348 497.541 347.465 499.676C337.949 501.732 327.326 505.52 318.699 509.985C310.403 514.277 301.528 520.456 294.68 526.763C288.106 532.817 281.482 540.764 276.772 548.324C272.258 555.569 268.187 564.576 265.789 572.744C263.494 580.559 262.065 589.889 261.966 598.025C261.871 605.795 262.966 614.741 264.98 622.253C266.9 629.41 270.219 637.35 274.014 643.738C277.622 649.811 282.717 656.247 287.849 661.137C292.715 665.775 299.037 670.368 304.992 673.536C310.624 676.531 317.571 679.117 323.817 680.49C329.702 681.785 336.677 682.373 342.697 682.032C348.353 681.712 354.808 680.473 360.156 678.63C365.159 676.906 370.641 674.147 374.962 671.121C378.987 668.303 383.168 664.431 386.231 660.612C389.07 657.073 391.765 652.55 393.469 648.361C395.038 644.499 396.215 639.8 396.588 635.656C396.932 631.858 396.695 627.427 395.892 623.697C395.161 620.304 393.741 616.512 392.007 613.493C390.442 610.767 388.161 607.886 385.814 605.775C383.712 603.884 380.945 602.068 378.335 600.948C376.02 599.954 373.153 599.229 370.632 599.073C368.411 598.934 365.808 599.206 363.688 599.872C361.829 600.457 359.793 601.529 358.317 602.789C357.018 603.897 355.769 605.496 355.079 607.048C354.461 608.442 354.116 610.238 354.233 611.755C354.342 613.179 354.904 614.812 355.713 615.996C356.523 617.179 357.085 618.813 357.194 620.236C357.311 621.753 356.967 623.55 356.348 624.943C355.659 626.496 354.41 628.094 353.111 629.203C351.635 630.462 349.599 631.535 347.739 632.119C345.62 632.786 343.017 633.058 340.795 632.92C338.275 632.762 335.408 632.037 333.092 631.043C330.483 629.923 327.716 628.107 325.614 626.216C323.267 624.105 320.986 621.225 319.42 618.499C317.687 615.48 316.267 611.688 315.536 608.294C314.732 604.565 314.496 600.134 314.838 596.336C315.213 592.191 316.388 587.492 317.959 583.631C319.663 579.442 322.358 574.919 325.197 571.379C328.26 567.561 332.441 563.688 336.466 560.87C340.787 557.844 346.269 555.086 351.272 553.361C356.62 551.519 363.075 550.281 368.731 549.96C374.751 549.619 381.726 550.206 387.611 551.501C393.856 552.875 400.804 555.461 406.435 558.456C412.391 561.623 418.712 566.217 423.578 570.854C428.711 575.745 433.806 582.182 437.413 588.254C441.209 594.642 444.528 602.581 446.448 609.738C448.462 617.25 449.557 626.197 449.462 633.966C449.363 642.102 447.934 651.433 445.638 659.247C443.24 667.416 439.17 676.424 434.655 683.669C429.945 691.227 423.323 699.174 416.748 705.23C409.9 711.535 401.025 717.714 392.729 722.007C384.102 726.471 373.479 730.26 363.962 732.317C354.08 734.452 342.388 735.374 332.284 734.861C321.807 734.328 309.857 732.098 299.893 728.861C289.573 725.508 278.25 720.066 269.19 714.153C259.816 708.035 250.018 699.565 242.606 691.232C234.947 682.621 227.51 671.552 222.414 661.259C217.153 650.634 212.788 637.622 210.54 626.007C208.222 614.029 207.447 599.914 208.395 587.756C209.372 575.229 212.467 560.989 216.739 549.152C221.137 536.966 228.105 523.641 235.586 513.015C243.28 502.087 253.836 490.709 264.163 482.146C274.778 473.345 288.352 464.856 300.931 459.099C313.851 453.187 329.621 448.365 343.659 445.989C358.068 443.55 375.002 442.944 389.556 444.303C404.486 445.696 421.416 449.569 435.458 454.759C446.782 458.647 460.393 461.426 472.354 462.244C483.94 463.039 497.379 462.223 508.771 459.987C519.794 457.823 532.132 453.69 542.191 448.744C551.915 443.962 562.356 437.014 570.46 429.877C578.284 422.985 586.218 413.894 591.924 405.212C597.426 396.841 602.462 386.394 605.529 376.886C608.482 367.731 610.465 356.764 610.859 347.165C611.237 337.933 610.249 327.264 608.134 318.263C606.103 309.62 602.436 299.99 598.154 292.188C594.048 284.711 588.173 276.73 582.2 270.598C576.483 264.73 569.004 258.844 561.909 254.691C555.134 250.726 546.729 247.188 539.126 245.152C531.881 243.213 523.248 242.078 515.741 242.125C508.604 242.171 500.405 243.304 493.544 245.241C487.038 247.079 479.844 250.18 474.083 253.683C468.638 256.995 462.893 261.635 458.565 266.282C454.484 270.661 450.481 276.324 447.77 281.636C445.224 286.626 443.084 292.759 442.029 298.247C441.041 303.381 440.722 309.443 441.219 314.647C441.681 319.494 442.992 325 444.813 329.525C446.502 333.72 449.127 338.283 451.953 341.832C454.56 345.105 458.099 348.457 461.551 350.849C464.715 353.042 468.724 355.054 472.401 356.233C475.747 357.305 479.787 357.989 483.305 358.018C486.481 358.045 490.151 357.536 493.179 356.587C495.891 355.738 498.869 354.282 501.157 352.614C503.188 351.133 505.258 349.047 506.657 346.973C507.888 345.146 508.951 342.787 509.426 340.643C509.843 338.763 509.918 336.488 509.55 334.598C509.226 332.933 508.447 331.067 507.429 329.703C506.514 328.477 505.109 327.286 503.718 326.626C502.413 326.008 500.697 325.672 499.254 325.771C497.809 325.87 496.094 325.534 494.79 324.915C493.399 324.255 491.994 323.064 491.079 321.839C490.059 320.474 489.28 318.608 488.956 316.943C488.59 315.053 488.665 312.779 489.082 310.898C489.556 308.755 490.618 306.396 491.851 304.568C493.249 302.495 495.319 300.409 497.35 298.928C499.637 297.259 502.616 295.804 505.327 294.954C508.355 294.005 512.025 293.498 515.203 293.523C518.72 293.552 522.76 294.236 526.106 295.308C529.783 296.487 533.793 298.5 536.956 300.692C540.409 303.085 543.947 306.437 546.553 309.71C549.381 313.259 552.004 317.822 553.693 322.016C555.516 326.542 556.826 332.048 557.288 336.896C557.784 342.099 557.466 348.16 556.479 353.295C555.423 358.783 553.284 364.916 550.737 369.905C548.026 375.218 544.023 380.88 539.943 385.259C535.614 389.907 529.87 394.547 524.424 397.858C518.664 401.361 511.47 404.464 504.964 406.3C498.103 408.239 489.903 409.372 482.766 409.416C475.259 409.463 466.627 408.328 459.381 406.389C451.778 404.353 443.373 400.815 436.598 396.85C429.503 392.697 422.023 386.811 416.308 380.944C410.334 374.811 404.458 366.831 400.354 359.353C396.071 351.551 392.403 341.921 390.373 333.279C388.259 324.278 387.271 313.609 387.649 304.377C388.042 294.777 390.026 283.81 392.979 274.655C396.044 265.148 401.081 254.701 406.583 246.329C412.289 237.647 420.223 228.556 428.048 221.665C436.152 214.527 446.593 207.579 456.316 202.798C466.375 197.851 478.712 193.718 489.737 191.554C501.128 189.319 514.567 188.502 526.154 189.297C538.115 190.116 551.725 192.894 563.048 196.782C574.727 200.79 587.51 207.187 597.712 214.075C608.226 221.173 619.183 230.936 627.443 240.503C635.946 250.352 644.162 262.966 649.753 274.667C655.504 286.703 660.218 301.408 662.574 314.509C664.995 327.974 665.664 343.812 664.429 357.433C663.161 371.424 659.511 387.302 654.579 400.479C649.516 414.004 641.582 428.768 633.111 440.52C624.423 452.574 612.555 465.096 600.977 474.493C591.901 482.22 582.656 492.454 575.956 502.26C569.465 511.759 563.462 523.645 559.73 534.491C556.118 544.987 553.578 557.591 552.893 568.655C552.23 579.349 553.111 591.741 555.328 602.231C557.468 612.359 561.484 623.681 566.255 632.894C570.856 641.779 577.512 651.303 584.328 658.676C590.893 665.776 599.532 672.954 607.765 678.089C615.683 683.028 625.547 687.518 634.508 690.212C643.113 692.8 653.404 694.483 662.397 694.726C671.017 694.96 680.962 693.932 689.334 691.896C697.345 689.949 706.254 686.503 713.448 682.52C720.318 678.718 727.627 673.308 733.216 667.832C738.542 662.615 743.855 655.809 747.567 649.375C751.097 643.257 754.201 635.687 755.93 628.859C757.569 622.385 758.443 614.69 758.247 608.018C758.061 601.712 756.858 594.486 754.942 588.466C753.135 582.792 750.165 576.541 746.855 571.57C743.746 566.9 739.431 562.006 735.138 558.361C731.123 554.951 725.959 551.647 721.141 549.47C716.654 547.441 711.163 545.806 706.279 545.101C701.75 544.446 696.43 544.406 691.901 545.045C687.724 545.634 683.01 546.981 679.182 548.733C675.676 550.338 671.903 552.756 669.03 555.307C666.415 557.629 663.795 560.736 662.01 563.726C660.399 566.427 659.011 569.815 658.33 572.875C657.72 575.616 657.509 578.888 657.83 581.675C658.115 584.15 658.911 586.961 660.034 589.192C661.022 591.158 662.563 593.245 664.209 594.722C665.651 596.019 667.612 597.22 669.455 597.851C671.078 598.407 673.107 598.674 674.814 598.487C676.349 598.318 678.097 597.714 679.371 596.856C680.567 596.051 681.72 594.754 682.355 593.471V593.471Z" fill="#FF8328"/>
<mask id="mask0_8_20" style="mask-type:alpha" maskUnits="userSpaceOnUse" x="426" y="5" width="164" height="164">
<rect x="426" y="5" width="163.816" height="163.816" fill="#D9D9D9"/>
</mask>
<g mask="url(#mask0_8_20)">
<path d="M463.541 124.449C453.075 124.449 444.202 120.809 436.921 113.528C429.64 106.247 426 97.3739 426 86.9079C426 76.4419 429.64 67.5685 436.921 60.2878C444.202 53.0071 453.075 49.3668 463.541 49.3668C467.75 49.3668 471.789 50.1062 475.657 51.5851C479.525 53.064 482.994 55.1686 486.066 57.8989L497.669 68.4786L487.431 77.6933L476.851 68.1373C475.031 66.5447 472.983 65.2933 470.708 64.3832C468.433 63.4731 466.044 63.0181 463.541 63.0181C456.943 63.0181 451.312 65.3502 446.648 70.0144C441.983 74.6786 439.651 80.3098 439.651 86.9079C439.651 93.506 441.983 99.1372 446.648 103.801C451.312 108.466 456.943 110.798 463.541 110.798C466.044 110.798 468.433 110.343 470.708 109.433C472.983 108.522 475.031 107.271 476.851 105.678L529.75 57.8989C532.822 55.1686 536.291 53.064 540.159 51.5851C544.027 50.1062 548.066 49.3668 552.275 49.3668C562.741 49.3668 571.614 53.0071 578.895 60.2878C586.175 67.5685 589.816 76.4419 589.816 86.9079C589.816 97.3739 586.175 106.247 578.895 113.528C571.614 120.809 562.741 124.449 552.275 124.449C548.066 124.449 544.027 123.71 540.159 122.231C536.291 120.752 532.822 118.647 529.75 115.917L518.146 105.337L528.385 96.1225L538.965 105.678C540.785 107.271 542.833 108.522 545.108 109.433C547.383 110.343 549.772 110.798 552.275 110.798C558.873 110.798 564.504 108.466 569.168 103.801C573.832 99.1372 576.164 93.506 576.164 86.9079C576.164 80.3098 573.832 74.6786 569.168 70.0144C564.504 65.3502 558.873 63.0181 552.275 63.0181C549.772 63.0181 547.383 63.4731 545.108 64.3832C542.833 65.2933 540.785 66.5447 538.965 68.1373L486.066 115.917C482.994 118.647 479.525 120.752 475.657 122.231C471.789 123.71 467.75 124.449 463.541 124.449Z" fill="#FF8328"/>
</g>
</svg>
