<svg width="60" height="60" viewBox="0 0 60 60" fill="none" xmlns="http://www.w3.org/2000/svg">
<circle cx="30" cy="30" r="30" fill="url(#paint0_linear_1_75)"/>
<path d="M46.5 16.9469C46.4901 15.919 46.0755 14.9365 45.346 14.2122C44.6166 13.488 43.631 13.0805 42.6031 13.0781L17.8781 13C16.8513 13.0002 15.8664 13.4076 15.1394 14.1328C14.4124 14.858 14.0027 15.8419 14 16.8687V42.375C14 44.5078 15.7406 46.125 17.8781 46.125H39L37.9844 42.6875L46.5 50.5V16.9469ZM35.6133 37.5164C35.6133 37.5164 34.932 36.7047 34.3633 36.007C36.843 35.3086 37.7891 33.7812 37.7891 33.7812C37.108 34.233 36.3781 34.6065 35.6133 34.8945C34.7302 35.2612 33.8107 35.5333 32.8703 35.7063C31.2499 36.0039 29.5884 35.9975 27.9703 35.6875C27.0186 35.5107 26.087 35.2385 25.1898 34.875C24.7152 34.6932 24.2537 34.4789 23.8086 34.2336C23.7516 34.1961 23.6953 34.1773 23.6383 34.1391C23.6 34.1203 23.5812 34.1016 23.5602 34.1016C23.2195 33.9125 23.0305 33.7805 23.0305 33.7805C23.0305 33.7805 23.9383 35.2719 26.3414 35.9883C25.7734 36.7055 25.0734 37.5359 25.0734 37.5359C20.893 37.4039 19.3039 34.6867 19.3039 34.6867C19.3039 28.6664 22.0281 23.7789 22.0281 23.7789C24.7523 21.7594 27.325 21.8164 27.325 21.8164L27.5141 22.043C24.1086 23.0055 22.5578 24.4961 22.5578 24.4961C22.5578 24.4961 22.9734 24.2695 23.6734 23.9672C25.6977 23.0805 27.3063 22.8539 27.9703 22.7789C28.0763 22.7569 28.184 22.7441 28.2922 22.7406C29.5599 22.5761 30.8426 22.5635 32.1133 22.7031C34.1084 22.9323 36.0413 23.5409 37.8078 24.4961C37.8078 24.4961 36.3133 23.0781 33.0969 22.1172L33.3617 21.8156C33.3617 21.8156 35.9531 21.7586 38.6594 23.7812C38.6594 23.7812 41.3836 28.6687 41.3836 34.6891C41.3836 34.6672 39.7937 37.3844 35.6133 37.5164Z" fill="#D9D9D9"/>
<path d="M26.8164 28.7812C25.7383 28.7812 24.8867 29.7063 24.8867 30.857C24.8867 32.0078 25.757 32.9328 26.8164 32.9328C27.8945 32.9328 28.7461 32.0086 28.7461 30.857C28.7656 29.7039 27.8945 28.7812 26.8164 28.7812ZM33.7211 28.7812C32.643 28.7812 31.7914 29.7063 31.7914 30.857C31.7914 32.0078 32.6617 32.9328 33.7211 32.9328C34.8 32.9328 35.6508 32.0086 35.6508 30.857C35.6508 29.7055 34.7812 28.7812 33.7211 28.7812Z" fill="#D9D9D9"/>
<defs>
<linearGradient id="paint0_linear_1_75" x1="0" y1="0" x2="60" y2="60" gradientUnits="userSpaceOnUse">
<stop stop-color="#FF6B00"/>
<stop offset="1" stop-color="#FFA800"/>
</linearGradient>
</defs>
</svg>
