<svg width="60" height="60" viewBox="0 0 60 60" fill="none" xmlns="http://www.w3.org/2000/svg">
<circle cx="30" cy="30" r="30" fill="url(#paint0_linear_1_77)"/>
<path d="M30 10C18.9554 10 10 19.1875 10 30.5089C10 39.5714 15.7321 47.25 23.6786 49.9643C23.79 49.9885 23.9038 50.0005 24.0179 50C24.7589 50 25.0446 49.4553 25.0446 48.9821C25.0446 48.4911 25.0268 47.2053 25.0179 45.4911C24.3563 45.6461 23.6795 45.727 23 45.7321C19.1518 45.7321 18.2768 42.7411 18.2768 42.7411C17.3661 40.375 16.0536 39.7411 16.0536 39.7411C14.3125 38.5178 16.0446 38.4821 16.1786 38.4821H16.1875C18.1964 38.6607 19.25 40.6071 19.25 40.6071C20.25 42.3571 21.5893 42.8482 22.7857 42.8482C23.5768 42.8324 24.3557 42.6498 25.0714 42.3125C25.25 40.9911 25.7679 40.0893 26.3393 39.5714C21.9018 39.0536 17.2321 37.2946 17.2321 29.4375C17.2321 27.1964 18.0089 25.3661 19.2857 23.9375C19.0804 23.4196 18.3929 21.3304 19.4821 18.5089C19.6283 18.474 19.7784 18.4589 19.9286 18.4643C20.6518 18.4643 22.2857 18.7411 24.9821 20.6161C28.2585 19.6994 31.7236 19.6994 35 20.6161C37.6964 18.7411 39.3304 18.4643 40.0536 18.4643C40.2037 18.4589 40.3539 18.474 40.5 18.5089C41.5893 21.3304 40.9018 23.4196 40.6964 23.9375C41.9732 25.375 42.75 27.2054 42.75 29.4375C42.75 37.3125 38.0714 39.0446 33.6161 39.5536C34.3304 40.1875 34.9732 41.4375 34.9732 43.3482C34.9732 46.0893 34.9464 48.3036 34.9464 48.9732C34.9464 49.4553 35.2232 50 35.9643 50C36.0842 50.0005 36.2039 49.9885 36.3214 49.9643C44.2768 47.25 50 39.5625 50 30.5089C50 19.1875 41.0446 10 30 10Z" fill="#D9D9D9"/>
<defs>
<linearGradient id="paint0_linear_1_77" x1="0" y1="0" x2="60" y2="60" gradientUnits="userSpaceOnUse">
<stop stop-color="#FF6B00"/>
<stop offset="1" stop-color="#FFA800"/>
</linearGradient>
</defs>
</svg>
