<svg width="60" height="60" viewBox="0 0 60 60" fill="none" xmlns="http://www.w3.org/2000/svg">
<circle cx="30" cy="30" r="30" fill="url(#paint0_linear_1_74)"/>
<path d="M46.4099 26.9144C46.4099 27.5229 46.2449 28.1178 45.9358 28.6238C45.6268 29.1298 45.1875 29.5242 44.6735 29.757C44.1595 29.9899 43.594 30.0509 43.0483 29.9321C42.5027 29.8134 42.0015 29.5204 41.6081 29.0901C41.2148 28.6598 40.9469 28.1115 40.8383 27.5147C40.7298 26.9178 40.7855 26.2992 40.9984 25.7369C41.2113 25.1747 41.5718 24.6942 42.0344 24.3561C42.497 24.018 43.0408 23.8375 43.5971 23.8375C44.3431 23.8375 45.0585 24.1617 45.586 24.7387C46.1135 25.3158 46.4099 26.0984 46.4099 26.9144ZM43.5815 21C42.1529 21.0004 40.7821 21.6172 39.7669 22.7166C38.7516 23.816 38.1738 25.3091 38.159 26.8717L34.7837 32.1707C34.6436 32.1536 34.5027 32.1451 34.3618 32.1451C33.6352 32.1446 32.9222 32.3602 32.299 32.769L17.0006 26.0426C16.837 25.2271 16.466 24.4787 15.9302 23.884C15.3945 23.2893 14.716 22.8724 13.9729 22.6814C13.2299 22.4905 12.4526 22.5332 11.7308 22.8048C11.009 23.0764 10.3722 23.5657 9.89375 24.2163C9.41532 24.8669 9.11481 25.6521 9.02692 26.4815C8.93903 27.3109 9.06734 28.1506 9.39703 28.9036C9.72672 29.6567 10.2444 30.2924 10.8902 30.7374C11.536 31.1824 12.2838 31.4185 13.047 31.4186C13.7736 31.4191 14.4866 31.2034 15.1098 30.7947L30.4082 37.5125C30.6123 38.5431 31.1461 39.4601 31.9136 40.0982C32.6811 40.7362 33.6317 41.0535 34.5941 40.9926C35.5565 40.9318 36.4674 40.4969 37.1625 39.7664C37.8577 39.0358 38.2915 38.0577 38.3856 37.0082L43.5815 32.8544C45.0186 32.8544 46.3968 32.23 47.4129 31.1184C48.4291 30.0068 49 28.4992 49 26.9272C49 25.3552 48.4291 23.8476 47.4129 22.736C46.3968 21.6245 45.0186 21 43.5815 21ZM43.5815 22.9572C44.2989 22.9581 45.0001 23.1915 45.5963 23.6281C46.1925 24.0646 46.6571 24.6847 46.9313 25.4099C47.2055 26.1352 47.2771 26.9331 47.1369 27.7028C46.9968 28.4725 46.6512 29.1795 46.1438 29.7344C45.6365 30.2894 44.9902 30.6674 44.2866 30.8207C43.5829 30.974 42.8535 30.8958 42.1905 30.5958C41.5275 30.2959 40.9606 29.7877 40.5615 29.1355C40.1625 28.4833 39.949 27.7163 39.9483 26.9315C39.9491 25.8777 40.3322 24.8674 41.0133 24.1223C41.6945 23.3771 42.6181 22.9581 43.5815 22.9572ZM13.047 23.7264C13.5878 23.7261 14.1184 23.8866 14.5822 24.1907C15.046 24.4948 15.4255 24.9311 15.6801 25.4529L14.2034 24.8033V24.8119C13.628 24.5812 12.9932 24.6044 12.4331 24.8765C11.8731 25.1486 11.4317 25.6483 11.2024 26.2699C10.9731 26.8916 10.9737 27.5864 11.2042 28.2075C11.4348 28.8286 11.877 29.3273 12.4376 29.5981V29.6066L13.6955 30.1536C13.4853 30.2055 13.2704 30.2313 13.0549 30.2306C12.2664 30.2317 11.5098 29.8902 10.9515 29.2811C10.3932 28.672 10.079 27.8453 10.078 26.9828C10.0769 26.1203 10.3892 25.2926 10.946 24.682C11.5028 24.0713 12.2586 23.7276 13.047 23.7264ZM34.3618 33.316C34.889 33.3162 35.4067 33.4696 35.862 33.7604C36.3173 34.0513 36.6938 34.4692 36.953 34.9714C37.2122 35.4736 37.3448 36.0421 37.3373 36.6188C37.3297 37.1955 37.1823 37.7596 36.9101 38.2535C36.6379 38.7475 36.2507 39.1534 35.788 39.43C35.3253 39.7065 34.8038 39.8436 34.2767 39.8274C33.7497 39.8111 33.2361 39.642 32.7884 39.3374C32.3407 39.0328 31.975 38.6036 31.7287 38.0936C32.2209 38.3073 32.7053 38.521 33.1976 38.7432C33.4866 38.8736 33.7964 38.9401 34.1091 38.9387C34.4218 38.9373 34.7311 38.8681 35.0192 38.7352C35.3072 38.6022 35.5683 38.408 35.7874 38.1639C36.0064 37.9199 36.179 37.6307 36.2952 37.3132C36.4114 36.9957 36.4689 36.6561 36.4644 36.3141C36.4599 35.9721 36.3934 35.6345 36.2688 35.3208C36.1442 35.0071 35.964 34.7235 35.7386 34.4865C35.5132 34.2495 35.247 34.0637 34.9556 33.9399L33.7133 33.3929C33.9269 33.3462 34.1439 33.3204 34.3618 33.316Z" fill="#D9D9D9"/>
<defs>
<linearGradient id="paint0_linear_1_74" x1="0" y1="0" x2="60" y2="60" gradientUnits="userSpaceOnUse">
<stop stop-color="#FF6B00"/>
<stop offset="1" stop-color="#FFA800"/>
<stop offset="1" stop-color="#FFA800"/>
</linearGradient>
</defs>
</svg>
