<svg width="60" height="60" viewBox="0 0 60 60" fill="none" xmlns="http://www.w3.org/2000/svg">
<g clip-path="url(#clip0_4_72)">
<path d="M30 60C46.5685 60 60 46.5685 60 30C60 13.4315 46.5685 0 30 0C13.4315 0 0 13.4315 0 30C0 46.5685 13.4315 60 30 60Z" fill="url(#paint0_linear_4_72)"/>
<path d="M20.3073 32.193L23.8665 42.0445C23.8665 42.0445 24.3115 42.9662 24.788 42.9662C25.2645 42.9662 32.3518 35.5932 32.3518 35.5932L40.233 20.3707L20.4343 29.65L20.3073 32.193Z" fill="#C8DAEA"/>
<path d="M25.0265 34.7195L24.3433 41.981C24.3433 41.981 24.0573 44.206 26.2818 41.981C28.5063 39.756 30.6355 38.0402 30.6355 38.0402" fill="#A9C6D8"/>
<path d="M20.3715 32.5445L13.05 30.159C13.05 30.159 12.175 29.804 12.4567 28.999C12.5147 28.833 12.6317 28.6917 12.9817 28.449C14.604 27.3182 43.0082 17.109 43.0082 17.109C43.0082 17.109 43.8102 16.8387 44.2832 17.0185C44.4003 17.0547 44.5056 17.1214 44.5884 17.2116C44.6712 17.3019 44.7285 17.4125 44.7545 17.5322C44.8056 17.7436 44.827 17.9612 44.818 18.1785C44.8157 18.3665 44.793 18.5407 44.7757 18.814C44.6027 21.6052 39.4257 42.4372 39.4257 42.4372C39.4257 42.4372 39.116 43.6562 38.0062 43.698C37.7335 43.7068 37.4618 43.6606 37.2073 43.5622C36.9529 43.4637 36.7208 43.315 36.525 43.125C34.3472 41.2517 26.8202 36.1932 25.157 35.0807C25.1195 35.0552 25.0879 35.0219 25.0643 34.983C25.0408 34.9442 25.0258 34.9008 25.0205 34.8557C24.9972 34.7385 25.1247 34.5932 25.1247 34.5932C25.1247 34.5932 38.2312 22.9432 38.58 21.7202C38.607 21.6255 38.505 21.5787 38.368 21.6202C37.4975 21.9405 22.407 31.4702 20.7415 32.522C20.6216 32.5583 20.4949 32.566 20.3715 32.5445Z" fill="white"/>
</g>
<defs>
<linearGradient id="paint0_linear_4_72" x1="0" y1="0" x2="60" y2="60" gradientUnits="userSpaceOnUse">
<stop stop-color="#FF6B00"/>
<stop offset="1" stop-color="#FFA800"/>
</linearGradient>
<clipPath id="clip0_4_72">
<rect width="60" height="60" fill="white"/>
</clipPath>
</defs>
</svg>
