<svg width="60" height="60" viewBox="0 0 60 60" fill="none" xmlns="http://www.w3.org/2000/svg">
<circle cx="30" cy="30" r="30" fill="url(#paint0_linear_1_76)"/>
<path d="M47 19.8982C45.8371 20.4687 44.6068 20.8445 43.3478 21.0139C44.6709 20.1391 45.6659 18.7495 46.1462 17.1055C44.8953 17.9314 43.529 18.5108 42.1059 18.8191C41.5066 18.11 40.7859 17.5459 39.9875 17.1611C39.1891 16.7762 38.3298 16.5787 37.4617 16.5805C33.9471 16.5805 31.1028 19.7451 31.1028 23.6462C31.1003 24.1888 31.1554 24.7298 31.2669 25.2576C28.7466 25.1242 26.2788 24.3983 24.0212 23.1264C21.7637 21.8545 19.7662 20.0646 18.1564 17.8712C17.5917 18.946 17.293 20.1724 17.2917 21.4222C17.2917 23.8722 18.4238 26.0378 20.1333 27.3066C19.1205 27.2794 18.1284 26.9768 17.2413 26.4243V26.5118C17.2413 29.9388 19.4371 32.7899 22.3434 33.4388C21.7969 33.6033 21.2337 33.6867 20.6681 33.6867C20.2667 33.6875 19.8663 33.6436 19.4726 33.5555C20.2806 36.3628 22.6321 38.4044 25.4175 38.4628C23.1541 40.4322 20.3753 41.4966 17.5177 41.4888C17.0105 41.488 16.5037 41.4539 16 41.3867C18.907 43.4825 22.2862 44.5911 25.7353 44.5805C37.4481 44.5805 43.847 33.8107 43.847 24.4701C43.847 24.1639 43.8399 23.8576 43.827 23.5587C45.069 22.5612 46.1435 21.3217 47 19.8982Z" fill="#D9D9D9"/>
<defs>
<linearGradient id="paint0_linear_1_76" x1="0" y1="0" x2="60" y2="60" gradientUnits="userSpaceOnUse">
<stop stop-color="#FF6B00"/>
<stop offset="1" stop-color="#FFA800"/>
</linearGradient>
</defs>
</svg>
